<svg version="1.1" xmlns="http://www.w3.org/2000/svg" viewBox="0 0 216.4217962503435 192.8755557775499" width="216.4217962503435" height="192.8755557775499" class="excalidraw-svg">
  <!-- svg-source:excalidraw -->
  
  <defs>
    <style class="style-fonts">
      @font-face {
        font-family: "Virgil";
        src: url("https://excalidraw.com/Virgil.woff2");
      }
      @font-face {
        font-family: "Cascadia";
        src: url("https://excalidraw.com/Cascadia.woff2");
      }
      @font-face {
        font-family: "Assistant";
        src: url("https://excalidraw.com/Assistant-Regular.woff2");
      }
    </style>
    
  </defs>
  <rect x="0" y="0" width="216.4217962503435" height="192.8755557775499" fill="#ffffff"></rect><g stroke-linecap="round"><g transform="translate(39.98159386590129 14.579918878525497) rotate(0 1.26788330078125 82.91910552978523)"><path d="M-0.9 0.14 C-0.65 28.04, 1.88 138.69, 2.5 166.34 M0.82 -0.83 C0.83 26.8, 1.3 136.43, 1.53 164.49" stroke="#1e1e1e" stroke-width="2" fill="none"></path></g></g><mask></mask><g stroke-linecap="round"><g transform="translate(10.566890496760607 182.44672490879907) rotate(0 97.88002014160165 -1.521453857421875)"><path d="M-0.57 0.43 C31.88 -0.14, 163.06 -2.47, 195.85 -2.99 M1.34 -0.39 C33.53 -0.79, 162.57 -1.29, 194.96 -1.43" stroke="#1e1e1e" stroke-width="2" fill="none"></path></g></g><mask></mask><g stroke-linecap="round"><g transform="translate(21.21706749871373 14.072777765244247) rotate(0 82.41192626953134 -1.521453857421875)"><path d="M0.72 0.35 C27.98 -0.32, 136.58 -3.43, 164.05 -4.07 M-0.36 -0.51 C27.24 -1.06, 138.77 -2.76, 166.36 -3.08" stroke="#1e1e1e" stroke-width="2" fill="none"></path></g></g><mask></mask><g stroke-linecap="round"><g transform="translate(27.809993524104357 50.58759404942396) rotate(0 25.357528686523466 -18.510986328125014)"><path d="M1.01 -0.11 C9.4 -6.12, 42.53 -29.99, 50.94 -36.26 M0.08 -1.21 C8.28 -7.55, 41.61 -32.06, 50.11 -37.98" stroke="#1e1e1e" stroke-width="2" fill="none"></path></g></g><mask></mask><g stroke-linecap="round"><g transform="translate(40.995906610041914 141.36753179356464) rotate(0 -9.382278442382841 19.77888488769534)"><path d="M1.06 -0.57 C-1.79 5.78, -14.67 31.7, -18.04 38.39 M0.16 1.75 C-2.71 8.17, -15.23 32.79, -18.61 39.31" stroke="#1e1e1e" stroke-width="2" fill="none"></path></g></g><mask></mask><g stroke-linecap="round"><g transform="translate(42.01021935418254 141.874703424424) rotate(0 12.932327270507812 19.525299072265653)"><path d="M-1.04 -0.47 C3.09 6.07, 21.46 32.84, 25.78 39.61 M0.61 -1.77 C4.5 4.39, 20.35 31.09, 24.79 37.78" stroke="#1e1e1e" stroke-width="2" fill="none"></path></g></g><mask></mask><g stroke-linecap="round"><g transform="translate(139.89025475457322 12.04416753575206) rotate(0 1.0142974853515625 17.75027465820314)"><path d="M-0.47 -0.03 C-0.16 5.96, 1.61 29.42, 1.97 35.41 M0.29 -0.52 C0.51 5.59, 1.08 30.13, 1.51 36.07" stroke="#1e1e1e" stroke-width="2" fill="none"></path></g></g><mask></mask><g stroke-linecap="round" transform="translate(127.71865441277635 48.55899907872084) rotate(0 14.453765869140625 15.721664428710952)"><path d="M12.28 -0.23 C15.26 -0.75, 19.97 0.92, 22.59 2.8 C25.21 4.69, 27.19 7.89, 28 11.08 C28.81 14.27, 28.58 18.84, 27.46 21.94 C26.34 25.05, 24.09 28.21, 21.29 29.71 C18.5 31.22, 13.77 31.73, 10.69 30.95 C7.61 30.18, 4.56 27.81, 2.82 25.08 C1.07 22.35, 0.08 17.99, 0.22 14.56 C0.37 11.13, 1.42 6.89, 3.67 4.51 C5.93 2.13, 12.07 0.98, 13.75 0.27 C15.42 -0.44, 13.78 0, 13.72 0.26 M15.6 0.01 C18.7 0.15, 23.42 2.09, 25.7 4.5 C27.97 6.9, 29.28 11.07, 29.25 14.46 C29.22 17.85, 27.38 22.02, 25.5 24.86 C23.62 27.69, 20.93 30.69, 17.96 31.48 C14.99 32.27, 10.39 31.15, 7.69 29.58 C4.99 28.01, 2.96 25.15, 1.77 22.07 C0.58 18.98, -0.23 14.23, 0.57 11.07 C1.38 7.92, 3.91 4.94, 6.62 3.14 C9.32 1.34, 15.2 0.74, 16.82 0.27 C18.44 -0.2, 16.4 0.19, 16.32 0.32" stroke="#1e1e1e" stroke-width="2" fill="none"></path></g><g transform="translate(140.3974263854326 66.30927373692398) rotate(0 0.2535552978515625 -0.5071563720703125)" stroke="none"><path fill="#1e1e1e" d="M -3.80,-2.63 Q -3.80,-2.63 -3.37,-3.23 -2.93,-3.83 -2.33,-4.26 -1.73,-4.69 -1.02,-4.91 -0.31,-5.12 0.42,-5.10 1.17,-5.08 1.86,-4.82 2.56,-4.56 3.13,-4.10 3.71,-3.63 4.11,-3.00 4.50,-2.38 4.68,-1.66 4.86,-0.94 4.79,-0.20 4.73,0.53 4.44,1.21 4.14,1.89 3.64,2.44 3.15,2.99 2.50,3.36 1.85,3.72 1.12,3.86 0.40,4.00 -0.33,3.89 -1.06,3.79 -1.73,3.46 -2.39,3.13 -2.91,2.60 -3.44,2.07 -3.76,1.41 -4.09,0.74 -4.19,0.01 -4.29,-0.72 -4.14,-1.45 -4.00,-2.17 -3.63,-2.82 -3.27,-3.46 -2.71,-3.96 -2.16,-4.45 -1.48,-4.74 -0.79,-5.03 -0.06,-5.09 0.67,-5.15 1.39,-4.97 2.11,-4.78 2.74,-4.38 3.36,-3.98 3.82,-3.40 4.29,-2.82 4.54,-2.12 4.79,-1.43 4.81,-0.68 4.83,0.05 4.61,0.75 4.39,1.46 4.39,1.46 4.39,1.46 4.15,1.97 3.91,2.47 3.56,2.90 3.20,3.34 2.76,3.67 2.31,4.01 1.80,4.22 1.28,4.44 0.73,4.53 0.18,4.62 -0.37,4.58 -0.92,4.53 -1.45,4.36 -1.98,4.18 -2.45,3.88 -2.92,3.58 -3.31,3.18 -3.70,2.78 -3.98,2.29 -4.26,1.81 -4.41,1.27 -4.57,0.74 -4.59,0.18 -4.61,-0.37 -4.50,-0.92 -4.39,-1.46 -4.10,-2.05 L -3.80,-2.63 Z"></path></g><g transform="translate(140.90453698113572 65.29496099278336) rotate(0 0.00005000000000165983 0.00004999999999988347)" stroke="none"><path fill="#1e1e1e" d="M 3.14,-3.14 Q 3.14,-3.14 3.55,-2.55 3.97,-1.97 4.18,-1.28 4.40,-0.59 4.38,0.11 4.36,0.83 4.11,1.51 3.86,2.18 3.41,2.74 2.96,3.30 2.36,3.69 1.75,4.07 1.05,4.25 0.36,4.42 -0.35,4.36 -1.07,4.30 -1.73,4.02 -2.39,3.74 -2.92,3.26 -3.46,2.78 -3.81,2.15 -4.16,1.53 -4.30,0.82 -4.43,0.11 -4.34,-0.59 -4.24,-1.30 -3.92,-1.94 -3.60,-2.59 -3.09,-3.09 -2.59,-3.60 -1.94,-3.92 -1.30,-4.24 -0.59,-4.34 0.12,-4.43 0.82,-4.30 1.53,-4.16 2.15,-3.81 2.78,-3.46 3.26,-2.92 3.74,-2.39 4.02,-1.73 4.31,-1.07 4.36,-0.35 4.42,0.36 4.25,1.05 4.07,1.75 3.69,2.36 3.30,2.96 2.74,3.41 2.18,3.86 1.51,4.11 0.83,4.36 0.11,4.38 -0.60,4.40 -1.28,4.18 -1.97,3.97 -2.55,3.55 -3.14,3.13 -3.14,3.14 -3.14,3.14 -3.47,2.71 -3.80,2.29 -4.02,1.80 -4.24,1.32 -4.33,0.79 -4.43,0.26 -4.40,-0.26 -4.36,-0.80 -4.20,-1.31 -4.04,-1.82 -3.77,-2.28 -3.49,-2.73 -3.11,-3.11 -2.73,-3.49 -2.28,-3.77 -1.82,-4.05 -1.31,-4.20 -0.80,-4.36 -0.26,-4.40 0.26,-4.43 0.79,-4.33 1.32,-4.24 1.80,-4.02 2.29,-3.80 2.71,-3.47 3.14,-3.14 3.14,-3.14 L 3.14,-3.14 Z"></path></g><g transform="translate(140.90453698113572 65.29496099278336) rotate(0 0.00005000000000165983 0.00004999999999988347)" stroke="none"><path fill="#1e1e1e" d="M 3.14,-3.14 Q 3.14,-3.14 3.55,-2.55 3.97,-1.97 4.18,-1.28 4.40,-0.59 4.38,0.11 4.36,0.83 4.11,1.51 3.86,2.18 3.41,2.74 2.96,3.30 2.36,3.69 1.75,4.07 1.05,4.25 0.36,4.42 -0.35,4.36 -1.07,4.30 -1.73,4.02 -2.39,3.74 -2.92,3.26 -3.46,2.78 -3.81,2.15 -4.16,1.53 -4.30,0.82 -4.43,0.11 -4.34,-0.59 -4.24,-1.30 -3.92,-1.94 -3.60,-2.59 -3.09,-3.09 -2.59,-3.60 -1.94,-3.92 -1.30,-4.24 -0.59,-4.34 0.12,-4.43 0.82,-4.30 1.53,-4.16 2.15,-3.81 2.78,-3.46 3.26,-2.92 3.74,-2.39 4.02,-1.73 4.31,-1.07 4.36,-0.35 4.42,0.36 4.25,1.05 4.07,1.75 3.69,2.36 3.30,2.96 2.74,3.41 2.18,3.86 1.51,4.11 0.83,4.36 0.11,4.38 -0.60,4.40 -1.28,4.18 -1.97,3.97 -2.55,3.55 -3.14,3.13 -3.14,3.14 -3.14,3.14 -3.47,2.71 -3.80,2.29 -4.02,1.80 -4.24,1.32 -4.33,0.79 -4.43,0.26 -4.40,-0.26 -4.36,-0.80 -4.20,-1.31 -4.04,-1.82 -3.77,-2.28 -3.49,-2.73 -3.11,-3.11 -2.73,-3.49 -2.28,-3.77 -1.82,-4.05 -1.31,-4.20 -0.80,-4.36 -0.26,-4.40 0.26,-4.43 0.79,-4.33 1.32,-4.24 1.80,-4.02 2.29,-3.80 2.71,-3.47 3.14,-3.14 3.14,-3.14 L 3.14,-3.14 Z"></path></g><g transform="translate(140.90453698113572 65.29496099278336) rotate(0 0.00005000000000165983 0.00004999999999988347)" stroke="none"><path fill="#1e1e1e" d="M 3.14,-3.14 Q 3.14,-3.14 3.55,-2.55 3.97,-1.97 4.18,-1.28 4.40,-0.59 4.38,0.11 4.36,0.83 4.11,1.51 3.86,2.18 3.41,2.74 2.96,3.30 2.36,3.69 1.75,4.07 1.05,4.25 0.36,4.42 -0.35,4.36 -1.07,4.30 -1.73,4.02 -2.39,3.74 -2.92,3.26 -3.46,2.78 -3.81,2.15 -4.16,1.53 -4.30,0.82 -4.43,0.11 -4.34,-0.59 -4.24,-1.30 -3.92,-1.94 -3.60,-2.59 -3.09,-3.09 -2.59,-3.60 -1.94,-3.92 -1.30,-4.24 -0.59,-4.34 0.12,-4.43 0.82,-4.30 1.53,-4.16 2.15,-3.81 2.78,-3.46 3.26,-2.92 3.74,-2.39 4.02,-1.73 4.31,-1.07 4.36,-0.35 4.42,0.36 4.25,1.05 4.07,1.75 3.69,2.36 3.30,2.96 2.74,3.41 2.18,3.86 1.51,4.11 0.83,4.36 0.11,4.38 -0.60,4.40 -1.28,4.18 -1.97,3.97 -2.55,3.55 -3.14,3.13 -3.14,3.14 -3.14,3.14 -3.47,2.71 -3.80,2.29 -4.02,1.80 -4.24,1.32 -4.33,0.79 -4.43,0.26 -4.40,-0.26 -4.36,-0.80 -4.20,-1.31 -4.04,-1.82 -3.77,-2.28 -3.49,-2.73 -3.11,-3.11 -2.73,-3.49 -2.28,-3.77 -1.82,-4.05 -1.31,-4.20 -0.80,-4.36 -0.26,-4.40 0.26,-4.43 0.79,-4.33 1.32,-4.24 1.80,-4.02 2.29,-3.80 2.71,-3.47 3.14,-3.14 3.14,-3.14 L 3.14,-3.14 Z"></path></g><g transform="translate(141.4117086119951 62.75922490879896) rotate(0 0.00005000000000165983 0.00004999999999988347)" stroke="none"><path fill="#1e1e1e" d="M 3.14,-3.14 Q 3.14,-3.14 3.55,-2.55 3.97,-1.97 4.18,-1.28 4.40,-0.59 4.38,0.11 4.36,0.83 4.11,1.51 3.86,2.18 3.41,2.74 2.96,3.30 2.36,3.69 1.75,4.07 1.05,4.25 0.36,4.42 -0.35,4.36 -1.07,4.30 -1.73,4.02 -2.39,3.74 -2.92,3.26 -3.46,2.78 -3.81,2.15 -4.16,1.53 -4.30,0.82 -4.43,0.11 -4.34,-0.59 -4.24,-1.30 -3.92,-1.94 -3.60,-2.59 -3.09,-3.09 -2.59,-3.60 -1.94,-3.92 -1.30,-4.24 -0.59,-4.34 0.12,-4.43 0.82,-4.30 1.53,-4.16 2.15,-3.81 2.78,-3.46 3.26,-2.92 3.74,-2.39 4.02,-1.73 4.31,-1.07 4.36,-0.35 4.42,0.36 4.25,1.05 4.07,1.75 3.69,2.36 3.30,2.96 2.74,3.41 2.18,3.86 1.51,4.11 0.83,4.36 0.11,4.38 -0.60,4.40 -1.28,4.18 -1.97,3.97 -2.55,3.55 -3.14,3.13 -3.14,3.14 -3.14,3.14 -3.47,2.71 -3.80,2.29 -4.02,1.80 -4.24,1.32 -4.33,0.79 -4.43,0.26 -4.40,-0.26 -4.36,-0.80 -4.20,-1.31 -4.04,-1.82 -3.77,-2.28 -3.49,-2.73 -3.11,-3.11 -2.73,-3.49 -2.28,-3.77 -1.82,-4.05 -1.31,-4.20 -0.80,-4.36 -0.26,-4.40 0.26,-4.43 0.79,-4.33 1.32,-4.24 1.80,-4.02 2.29,-3.80 2.71,-3.47 3.14,-3.14 3.14,-3.14 L 3.14,-3.14 Z"></path></g><g transform="translate(141.4117086119951 62.75922490879896) rotate(0 0.00005000000000165983 0.00004999999999988347)" stroke="none"><path fill="#1e1e1e" d="M 3.14,-3.14 Q 3.14,-3.14 3.55,-2.55 3.97,-1.97 4.18,-1.28 4.40,-0.59 4.38,0.11 4.36,0.83 4.11,1.51 3.86,2.18 3.41,2.74 2.96,3.30 2.36,3.69 1.75,4.07 1.05,4.25 0.36,4.42 -0.35,4.36 -1.07,4.30 -1.73,4.02 -2.39,3.74 -2.92,3.26 -3.46,2.78 -3.81,2.15 -4.16,1.53 -4.30,0.82 -4.43,0.11 -4.34,-0.59 -4.24,-1.30 -3.92,-1.94 -3.60,-2.59 -3.09,-3.09 -2.59,-3.60 -1.94,-3.92 -1.30,-4.24 -0.59,-4.34 0.12,-4.43 0.82,-4.30 1.53,-4.16 2.15,-3.81 2.78,-3.46 3.26,-2.92 3.74,-2.39 4.02,-1.73 4.31,-1.07 4.36,-0.35 4.42,0.36 4.25,1.05 4.07,1.75 3.69,2.36 3.30,2.96 2.74,3.41 2.18,3.86 1.51,4.11 0.83,4.36 0.11,4.38 -0.60,4.40 -1.28,4.18 -1.97,3.97 -2.55,3.55 -3.14,3.13 -3.14,3.14 -3.14,3.14 -3.47,2.71 -3.80,2.29 -4.02,1.80 -4.24,1.32 -4.33,0.79 -4.43,0.26 -4.40,-0.26 -4.36,-0.80 -4.20,-1.31 -4.04,-1.82 -3.77,-2.28 -3.49,-2.73 -3.11,-3.11 -2.73,-3.49 -2.28,-3.77 -1.82,-4.05 -1.31,-4.20 -0.80,-4.36 -0.26,-4.40 0.26,-4.43 0.79,-4.33 1.32,-4.24 1.80,-4.02 2.29,-3.80 2.71,-3.47 3.14,-3.14 3.14,-3.14 L 3.14,-3.14 Z"></path></g><g transform="translate(141.4117086119951 60.73062993809584) rotate(0 0.00005000000000165983 0.000050000000000105516)" stroke="none"><path fill="#1e1e1e" d="M 3.14,-3.14 Q 3.14,-3.14 3.55,-2.55 3.97,-1.97 4.18,-1.28 4.40,-0.59 4.38,0.11 4.36,0.83 4.11,1.51 3.86,2.18 3.41,2.74 2.96,3.30 2.36,3.69 1.75,4.07 1.05,4.25 0.36,4.42 -0.35,4.36 -1.07,4.30 -1.73,4.02 -2.39,3.74 -2.92,3.26 -3.46,2.78 -3.81,2.15 -4.16,1.53 -4.30,0.82 -4.43,0.11 -4.34,-0.59 -4.24,-1.30 -3.92,-1.94 -3.60,-2.59 -3.09,-3.09 -2.59,-3.60 -1.94,-3.92 -1.30,-4.24 -0.59,-4.34 0.12,-4.43 0.82,-4.30 1.53,-4.16 2.15,-3.81 2.78,-3.46 3.26,-2.92 3.74,-2.39 4.02,-1.73 4.31,-1.07 4.36,-0.35 4.42,0.36 4.25,1.05 4.07,1.75 3.69,2.36 3.30,2.96 2.74,3.41 2.18,3.86 1.51,4.11 0.83,4.36 0.11,4.38 -0.60,4.40 -1.28,4.18 -1.97,3.97 -2.55,3.55 -3.14,3.13 -3.14,3.14 -3.14,3.14 -3.47,2.71 -3.80,2.29 -4.02,1.80 -4.24,1.32 -4.33,0.79 -4.43,0.26 -4.40,-0.26 -4.36,-0.80 -4.20,-1.31 -4.04,-1.82 -3.77,-2.28 -3.49,-2.73 -3.11,-3.11 -2.73,-3.49 -2.28,-3.77 -1.82,-4.05 -1.31,-4.20 -0.80,-4.36 -0.26,-4.40 0.26,-4.43 0.79,-4.33 1.32,-4.24 1.80,-4.02 2.29,-3.80 2.71,-3.47 3.14,-3.14 3.14,-3.14 L 3.14,-3.14 Z"></path></g><g transform="translate(141.4117086119951 60.73062993809584) rotate(0 0.00005000000000165983 0.000050000000000105516)" stroke="none"><path fill="#1e1e1e" d="M 3.14,-3.14 Q 3.14,-3.14 3.55,-2.55 3.97,-1.97 4.18,-1.28 4.40,-0.59 4.38,0.11 4.36,0.83 4.11,1.51 3.86,2.18 3.41,2.74 2.96,3.30 2.36,3.69 1.75,4.07 1.05,4.25 0.36,4.42 -0.35,4.36 -1.07,4.30 -1.73,4.02 -2.39,3.74 -2.92,3.26 -3.46,2.78 -3.81,2.15 -4.16,1.53 -4.30,0.82 -4.43,0.11 -4.34,-0.59 -4.24,-1.30 -3.92,-1.94 -3.60,-2.59 -3.09,-3.09 -2.59,-3.60 -1.94,-3.92 -1.30,-4.24 -0.59,-4.34 0.12,-4.43 0.82,-4.30 1.53,-4.16 2.15,-3.81 2.78,-3.46 3.26,-2.92 3.74,-2.39 4.02,-1.73 4.31,-1.07 4.36,-0.35 4.42,0.36 4.25,1.05 4.07,1.75 3.69,2.36 3.30,2.96 2.74,3.41 2.18,3.86 1.51,4.11 0.83,4.36 0.11,4.38 -0.60,4.40 -1.28,4.18 -1.97,3.97 -2.55,3.55 -3.14,3.13 -3.14,3.14 -3.14,3.14 -3.47,2.71 -3.80,2.29 -4.02,1.80 -4.24,1.32 -4.33,0.79 -4.43,0.26 -4.40,-0.26 -4.36,-0.80 -4.20,-1.31 -4.04,-1.82 -3.77,-2.28 -3.49,-2.73 -3.11,-3.11 -2.73,-3.49 -2.28,-3.77 -1.82,-4.05 -1.31,-4.20 -0.80,-4.36 -0.26,-4.40 0.26,-4.43 0.79,-4.33 1.32,-4.24 1.80,-4.02 2.29,-3.80 2.71,-3.47 3.14,-3.14 3.14,-3.14 L 3.14,-3.14 Z"></path></g><g transform="translate(141.4117086119951 60.73062993809584) rotate(0 0.00005000000000165983 0.000050000000000105516)" stroke="none"><path fill="#1e1e1e" d="M 3.14,-3.14 Q 3.14,-3.14 3.55,-2.55 3.97,-1.97 4.18,-1.28 4.40,-0.59 4.38,0.11 4.36,0.83 4.11,1.51 3.86,2.18 3.41,2.74 2.96,3.30 2.36,3.69 1.75,4.07 1.05,4.25 0.36,4.42 -0.35,4.36 -1.07,4.30 -1.73,4.02 -2.39,3.74 -2.92,3.26 -3.46,2.78 -3.81,2.15 -4.16,1.53 -4.30,0.82 -4.43,0.11 -4.34,-0.59 -4.24,-1.30 -3.92,-1.94 -3.60,-2.59 -3.09,-3.09 -2.59,-3.60 -1.94,-3.92 -1.30,-4.24 -0.59,-4.34 0.12,-4.43 0.82,-4.30 1.53,-4.16 2.15,-3.81 2.78,-3.46 3.26,-2.92 3.74,-2.39 4.02,-1.73 4.31,-1.07 4.36,-0.35 4.42,0.36 4.25,1.05 4.07,1.75 3.69,2.36 3.30,2.96 2.74,3.41 2.18,3.86 1.51,4.11 0.83,4.36 0.11,4.38 -0.60,4.40 -1.28,4.18 -1.97,3.97 -2.55,3.55 -3.14,3.13 -3.14,3.14 -3.14,3.14 -3.47,2.71 -3.80,2.29 -4.02,1.80 -4.24,1.32 -4.33,0.79 -4.43,0.26 -4.40,-0.26 -4.36,-0.80 -4.20,-1.31 -4.04,-1.82 -3.77,-2.28 -3.49,-2.73 -3.11,-3.11 -2.73,-3.49 -2.28,-3.77 -1.82,-4.05 -1.31,-4.20 -0.80,-4.36 -0.26,-4.40 0.26,-4.43 0.79,-4.33 1.32,-4.24 1.80,-4.02 2.29,-3.80 2.71,-3.47 3.14,-3.14 3.14,-3.14 L 3.14,-3.14 Z"></path></g><g transform="translate(143.94744469597947 65.80213262364273) rotate(0 0.00005000000000165983 0.00004999999999988347)" stroke="none"><path fill="#1e1e1e" d="M 6.28,-6.28 Q 6.28,-6.28 7.11,-5.11 7.95,-3.94 8.37,-2.57 8.80,-1.19 8.76,0.23 8.72,1.67 8.22,3.02 7.73,4.37 6.83,5.49 5.93,6.61 4.72,7.38 3.50,8.15 2.11,8.50 0.72,8.85 -0.71,8.73 -2.14,8.61 -3.46,8.05 -4.78,7.48 -5.85,6.52 -6.92,5.56 -7.63,4.31 -8.33,3.06 -8.60,1.65 -8.87,0.23 -8.68,-1.18 -8.49,-2.60 -7.85,-3.89 -7.21,-5.18 -6.19,-6.19 -5.18,-7.21 -3.89,-7.85 -2.60,-8.49 -1.18,-8.68 0.24,-8.87 1.65,-8.60 3.06,-8.33 4.31,-7.62 5.56,-6.92 6.52,-5.85 7.48,-4.78 8.05,-3.46 8.62,-2.14 8.73,-0.70 8.85,0.72 8.50,2.11 8.15,3.51 7.38,4.72 6.61,5.93 5.48,6.83 4.36,7.73 3.02,8.22 1.67,8.72 0.23,8.76 -1.20,8.80 -2.57,8.37 -3.94,7.95 -5.11,7.11 -6.28,6.27 -6.28,6.27 -6.28,6.28 -6.94,5.43 -7.60,4.59 -8.04,3.61 -8.48,2.64 -8.67,1.58 -8.86,0.53 -8.80,-0.53 -8.73,-1.60 -8.41,-2.62 -8.09,-3.64 -7.54,-4.56 -6.99,-5.47 -6.23,-6.23 -5.47,-6.99 -4.56,-7.54 -3.64,-8.10 -2.62,-8.41 -1.60,-8.73 -0.53,-8.80 0.53,-8.86 1.59,-8.67 2.64,-8.48 3.61,-8.04 4.59,-7.60 5.43,-6.94 6.28,-6.28 6.28,-6.28 L 6.28,-6.28 Z"></path></g><g transform="translate(143.94744469597947 61.74491216465834) rotate(0 0.00005000000000165983 0.00004999999999988347)" stroke="none"><path fill="#1e1e1e" d="M 6.28,-6.28 Q 6.28,-6.28 7.11,-5.11 7.95,-3.94 8.37,-2.57 8.80,-1.19 8.76,0.23 8.72,1.67 8.22,3.02 7.73,4.37 6.83,5.49 5.93,6.61 4.72,7.38 3.50,8.15 2.11,8.50 0.72,8.85 -0.71,8.73 -2.14,8.61 -3.46,8.05 -4.78,7.48 -5.85,6.52 -6.92,5.56 -7.63,4.31 -8.33,3.06 -8.60,1.65 -8.87,0.23 -8.68,-1.18 -8.49,-2.60 -7.85,-3.89 -7.21,-5.18 -6.19,-6.19 -5.18,-7.21 -3.89,-7.85 -2.60,-8.49 -1.18,-8.68 0.24,-8.87 1.65,-8.60 3.06,-8.33 4.31,-7.62 5.56,-6.92 6.52,-5.85 7.48,-4.78 8.05,-3.46 8.62,-2.14 8.73,-0.70 8.85,0.72 8.50,2.11 8.15,3.51 7.38,4.72 6.61,5.93 5.48,6.83 4.36,7.73 3.02,8.22 1.67,8.72 0.23,8.76 -1.20,8.80 -2.57,8.37 -3.94,7.95 -5.11,7.11 -6.28,6.27 -6.28,6.27 -6.28,6.28 -6.94,5.43 -7.60,4.59 -8.04,3.61 -8.48,2.64 -8.67,1.58 -8.86,0.53 -8.80,-0.53 -8.73,-1.60 -8.41,-2.62 -8.09,-3.64 -7.54,-4.56 -6.99,-5.47 -6.23,-6.23 -5.47,-6.99 -4.56,-7.54 -3.64,-8.10 -2.62,-8.41 -1.60,-8.73 -0.53,-8.80 0.53,-8.86 1.59,-8.67 2.64,-8.48 3.61,-8.04 4.59,-7.60 5.43,-6.94 6.28,-6.28 6.28,-6.28 L 6.28,-6.28 Z"></path></g><g transform="translate(142.9331929869951 60.73062993809584) rotate(0 0.00005000000000165983 0.000050000000000105516)" stroke="none"><path fill="#1e1e1e" d="M 6.28,-6.28 Q 6.28,-6.28 7.11,-5.11 7.95,-3.94 8.37,-2.57 8.80,-1.19 8.76,0.23 8.72,1.67 8.22,3.02 7.73,4.37 6.83,5.49 5.93,6.61 4.72,7.38 3.50,8.15 2.11,8.50 0.72,8.85 -0.71,8.73 -2.14,8.61 -3.46,8.05 -4.78,7.48 -5.85,6.52 -6.92,5.56 -7.63,4.31 -8.33,3.06 -8.60,1.65 -8.87,0.23 -8.68,-1.18 -8.49,-2.60 -7.85,-3.89 -7.21,-5.18 -6.19,-6.19 -5.18,-7.21 -3.89,-7.85 -2.60,-8.49 -1.18,-8.68 0.24,-8.87 1.65,-8.60 3.06,-8.33 4.31,-7.62 5.56,-6.92 6.52,-5.85 7.48,-4.78 8.05,-3.46 8.62,-2.14 8.73,-0.70 8.85,0.72 8.50,2.11 8.15,3.51 7.38,4.72 6.61,5.93 5.48,6.83 4.36,7.73 3.02,8.22 1.67,8.72 0.23,8.76 -1.20,8.80 -2.57,8.37 -3.94,7.95 -5.11,7.11 -6.28,6.27 -6.28,6.27 -6.28,6.28 -6.94,5.43 -7.60,4.59 -8.04,3.61 -8.48,2.64 -8.67,1.58 -8.86,0.53 -8.80,-0.53 -8.73,-1.60 -8.41,-2.62 -8.09,-3.64 -7.54,-4.56 -6.99,-5.47 -6.23,-6.23 -5.47,-6.99 -4.56,-7.54 -3.64,-8.10 -2.62,-8.41 -1.60,-8.73 -0.53,-8.80 0.53,-8.86 1.59,-8.67 2.64,-8.48 3.61,-8.04 4.59,-7.60 5.43,-6.94 6.28,-6.28 6.28,-6.28 L 6.28,-6.28 Z"></path></g><g transform="translate(140.90453698113572 61.23777105137709) rotate(0 -0.50714111328125 0.5071563720703125)" stroke="none"><path fill="#1e1e1e" d="M 5.83,6.99 Q 5.83,6.99 4.64,7.85 3.44,8.71 2.04,9.14 0.64,9.57 -0.82,9.53 -2.29,9.49 -3.67,8.98 -5.04,8.48 -6.19,7.56 -7.33,6.64 -8.12,5.40 -8.91,4.16 -9.27,2.74 -9.62,1.31 -9.50,-0.14 -9.38,-1.60 -8.80,-2.95 -8.22,-4.30 -7.24,-5.39 -6.26,-6.48 -4.98,-7.21 -3.71,-7.93 -2.26,-8.20 -0.82,-8.48 0.62,-8.28 2.08,-8.08 3.39,-7.43 4.71,-6.78 5.74,-5.74 6.78,-4.70 7.43,-3.39 8.09,-2.07 8.28,-0.62 8.48,0.83 8.20,2.27 7.93,3.71 7.20,4.99 6.48,6.26 5.39,7.24 4.30,8.22 2.95,8.80 1.60,9.38 0.14,9.50 -1.32,9.62 -2.74,9.27 -4.17,8.91 -5.40,8.12 -6.64,7.33 -7.56,6.19 -8.48,5.04 -8.98,3.66 -9.49,2.29 -9.53,0.82 -9.57,-0.64 -9.14,-2.04 -8.71,-3.45 -7.85,-4.64 -6.99,-5.83 -6.99,-5.83 -6.99,-5.83 -6.19,-6.58 -5.39,-7.33 -4.44,-7.87 -3.48,-8.41 -2.42,-8.71 -1.37,-9.00 -0.27,-9.03 0.82,-9.07 1.89,-8.84 2.97,-8.61 3.95,-8.13 4.94,-7.65 5.78,-6.94 6.63,-6.24 7.28,-5.35 7.93,-4.47 8.35,-3.46 8.77,-2.44 8.94,-1.36 9.10,-0.27 9.00,0.81 8.90,1.91 8.54,2.95 8.19,3.98 7.59,4.91 6.99,5.83 6.41,6.41 L 5.83,6.99 Z"></path></g><g transform="translate(138.8759420104326 60.73062993809584) rotate(0 0.00005000000000165983 0.000050000000000105516)" stroke="none"><path fill="#1e1e1e" d="M 6.28,-6.28 Q 6.28,-6.28 7.11,-5.11 7.95,-3.94 8.37,-2.57 8.80,-1.19 8.76,0.23 8.72,1.67 8.22,3.02 7.73,4.37 6.83,5.49 5.93,6.61 4.72,7.38 3.50,8.15 2.11,8.50 0.72,8.85 -0.71,8.73 -2.14,8.61 -3.46,8.05 -4.78,7.48 -5.85,6.52 -6.92,5.56 -7.63,4.31 -8.33,3.06 -8.60,1.65 -8.87,0.23 -8.68,-1.18 -8.49,-2.60 -7.85,-3.89 -7.21,-5.18 -6.19,-6.19 -5.18,-7.21 -3.89,-7.85 -2.60,-8.49 -1.18,-8.68 0.24,-8.87 1.65,-8.60 3.06,-8.33 4.31,-7.62 5.56,-6.92 6.52,-5.85 7.48,-4.78 8.05,-3.46 8.62,-2.14 8.73,-0.70 8.85,0.72 8.50,2.11 8.15,3.51 7.38,4.72 6.61,5.93 5.48,6.83 4.36,7.73 3.02,8.22 1.67,8.72 0.23,8.76 -1.20,8.80 -2.57,8.37 -3.94,7.95 -5.11,7.11 -6.28,6.27 -6.28,6.27 -6.28,6.28 -6.94,5.43 -7.60,4.59 -8.04,3.61 -8.48,2.64 -8.67,1.58 -8.86,0.53 -8.80,-0.53 -8.73,-1.60 -8.41,-2.62 -8.09,-3.64 -7.54,-4.56 -6.99,-5.47 -6.23,-6.23 -5.47,-6.99 -4.56,-7.54 -3.64,-8.10 -2.62,-8.41 -1.60,-8.73 -0.53,-8.80 0.53,-8.86 1.59,-8.67 2.64,-8.48 3.61,-8.04 4.59,-7.60 5.43,-6.94 6.28,-6.28 6.28,-6.28 L 6.28,-6.28 Z"></path></g><g transform="translate(138.36880089715135 61.23777105137709) rotate(0 0.00005000000000165983 0.00004999999999988347)" stroke="none"><path fill="#1e1e1e" d="M 6.28,-6.28 Q 6.28,-6.28 7.11,-5.11 7.95,-3.94 8.37,-2.57 8.80,-1.19 8.76,0.23 8.72,1.67 8.22,3.02 7.73,4.37 6.83,5.49 5.93,6.61 4.72,7.38 3.50,8.15 2.11,8.50 0.72,8.85 -0.71,8.73 -2.14,8.61 -3.46,8.05 -4.78,7.48 -5.85,6.52 -6.92,5.56 -7.63,4.31 -8.33,3.06 -8.60,1.65 -8.87,0.23 -8.68,-1.18 -8.49,-2.60 -7.85,-3.89 -7.21,-5.18 -6.19,-6.19 -5.18,-7.21 -3.89,-7.85 -2.60,-8.49 -1.18,-8.68 0.24,-8.87 1.65,-8.60 3.06,-8.33 4.31,-7.62 5.56,-6.92 6.52,-5.85 7.48,-4.78 8.05,-3.46 8.62,-2.14 8.73,-0.70 8.85,0.72 8.50,2.11 8.15,3.51 7.38,4.72 6.61,5.93 5.48,6.83 4.36,7.73 3.02,8.22 1.67,8.72 0.23,8.76 -1.20,8.80 -2.57,8.37 -3.94,7.95 -5.11,7.11 -6.28,6.27 -6.28,6.27 -6.28,6.28 -6.94,5.43 -7.60,4.59 -8.04,3.61 -8.48,2.64 -8.67,1.58 -8.86,0.53 -8.80,-0.53 -8.73,-1.60 -8.41,-2.62 -8.09,-3.64 -7.54,-4.56 -6.99,-5.47 -6.23,-6.23 -5.47,-6.99 -4.56,-7.54 -3.64,-8.10 -2.62,-8.41 -1.60,-8.73 -0.53,-8.80 0.53,-8.86 1.59,-8.67 2.64,-8.48 3.61,-8.04 4.59,-7.60 5.43,-6.94 6.28,-6.28 6.28,-6.28 L 6.28,-6.28 Z"></path></g><g transform="translate(137.35448815301072 62.25208379551771) rotate(0 0.00005000000000165983 0.00004999999999988347)" stroke="none"><path fill="#1e1e1e" d="M 6.28,-6.28 Q 6.28,-6.28 7.11,-5.11 7.95,-3.94 8.37,-2.57 8.80,-1.19 8.76,0.23 8.72,1.67 8.22,3.02 7.73,4.37 6.83,5.49 5.93,6.61 4.72,7.38 3.50,8.15 2.11,8.50 0.72,8.85 -0.71,8.73 -2.14,8.61 -3.46,8.05 -4.78,7.48 -5.85,6.52 -6.92,5.56 -7.63,4.31 -8.33,3.06 -8.60,1.65 -8.87,0.23 -8.68,-1.18 -8.49,-2.60 -7.85,-3.89 -7.21,-5.18 -6.19,-6.19 -5.18,-7.21 -3.89,-7.85 -2.60,-8.49 -1.18,-8.68 0.24,-8.87 1.65,-8.60 3.06,-8.33 4.31,-7.62 5.56,-6.92 6.52,-5.85 7.48,-4.78 8.05,-3.46 8.62,-2.14 8.73,-0.70 8.85,0.72 8.50,2.11 8.15,3.51 7.38,4.72 6.61,5.93 5.48,6.83 4.36,7.73 3.02,8.22 1.67,8.72 0.23,8.76 -1.20,8.80 -2.57,8.37 -3.94,7.95 -5.11,7.11 -6.28,6.27 -6.28,6.27 -6.28,6.28 -6.94,5.43 -7.60,4.59 -8.04,3.61 -8.48,2.64 -8.67,1.58 -8.86,0.53 -8.80,-0.53 -8.73,-1.60 -8.41,-2.62 -8.09,-3.64 -7.54,-4.56 -6.99,-5.47 -6.23,-6.23 -5.47,-6.99 -4.56,-7.54 -3.64,-8.10 -2.62,-8.41 -1.60,-8.73 -0.53,-8.80 0.53,-8.86 1.59,-8.67 2.64,-8.48 3.61,-8.04 4.59,-7.60 5.43,-6.94 6.28,-6.28 6.28,-6.28 L 6.28,-6.28 Z"></path></g><g transform="translate(137.35448815301072 63.26636602208021) rotate(0 0.00005000000000165983 0.00004999999999988347)" stroke="none"><path fill="#1e1e1e" d="M 6.28,-6.28 Q 6.28,-6.28 7.11,-5.11 7.95,-3.94 8.37,-2.57 8.80,-1.19 8.76,0.23 8.72,1.67 8.22,3.02 7.73,4.37 6.83,5.49 5.93,6.61 4.72,7.38 3.50,8.15 2.11,8.50 0.72,8.85 -0.71,8.73 -2.14,8.61 -3.46,8.05 -4.78,7.48 -5.85,6.52 -6.92,5.56 -7.63,4.31 -8.33,3.06 -8.60,1.65 -8.87,0.23 -8.68,-1.18 -8.49,-2.60 -7.85,-3.89 -7.21,-5.18 -6.19,-6.19 -5.18,-7.21 -3.89,-7.85 -2.60,-8.49 -1.18,-8.68 0.24,-8.87 1.65,-8.60 3.06,-8.33 4.31,-7.62 5.56,-6.92 6.52,-5.85 7.48,-4.78 8.05,-3.46 8.62,-2.14 8.73,-0.70 8.85,0.72 8.50,2.11 8.15,3.51 7.38,4.72 6.61,5.93 5.48,6.83 4.36,7.73 3.02,8.22 1.67,8.72 0.23,8.76 -1.20,8.80 -2.57,8.37 -3.94,7.95 -5.11,7.11 -6.28,6.27 -6.28,6.27 -6.28,6.28 -6.94,5.43 -7.60,4.59 -8.04,3.61 -8.48,2.64 -8.67,1.58 -8.86,0.53 -8.80,-0.53 -8.73,-1.60 -8.41,-2.62 -8.09,-3.64 -7.54,-4.56 -6.99,-5.47 -6.23,-6.23 -5.47,-6.99 -4.56,-7.54 -3.64,-8.10 -2.62,-8.41 -1.60,-8.73 -0.53,-8.80 0.53,-8.86 1.59,-8.67 2.64,-8.48 3.61,-8.04 4.59,-7.60 5.43,-6.94 6.28,-6.28 6.28,-6.28 L 6.28,-6.28 Z"></path></g><g transform="translate(137.35448815301072 63.26636602208021) rotate(0 0.00005000000000165983 0.00004999999999988347)" stroke="none"><path fill="#1e1e1e" d="M 6.28,-6.28 Q 6.28,-6.28 7.11,-5.11 7.95,-3.94 8.37,-2.57 8.80,-1.19 8.76,0.23 8.72,1.67 8.22,3.02 7.73,4.37 6.83,5.49 5.93,6.61 4.72,7.38 3.50,8.15 2.11,8.50 0.72,8.85 -0.71,8.73 -2.14,8.61 -3.46,8.05 -4.78,7.48 -5.85,6.52 -6.92,5.56 -7.63,4.31 -8.33,3.06 -8.60,1.65 -8.87,0.23 -8.68,-1.18 -8.49,-2.60 -7.85,-3.89 -7.21,-5.18 -6.19,-6.19 -5.18,-7.21 -3.89,-7.85 -2.60,-8.49 -1.18,-8.68 0.24,-8.87 1.65,-8.60 3.06,-8.33 4.31,-7.62 5.56,-6.92 6.52,-5.85 7.48,-4.78 8.05,-3.46 8.62,-2.14 8.73,-0.70 8.85,0.72 8.50,2.11 8.15,3.51 7.38,4.72 6.61,5.93 5.48,6.83 4.36,7.73 3.02,8.22 1.67,8.72 0.23,8.76 -1.20,8.80 -2.57,8.37 -3.94,7.95 -5.11,7.11 -6.28,6.27 -6.28,6.27 -6.28,6.28 -6.94,5.43 -7.60,4.59 -8.04,3.61 -8.48,2.64 -8.67,1.58 -8.86,0.53 -8.80,-0.53 -8.73,-1.60 -8.41,-2.62 -8.09,-3.64 -7.54,-4.56 -6.99,-5.47 -6.23,-6.23 -5.47,-6.99 -4.56,-7.54 -3.64,-8.10 -2.62,-8.41 -1.60,-8.73 -0.53,-8.80 0.53,-8.86 1.59,-8.67 2.64,-8.48 3.61,-8.04 4.59,-7.60 5.43,-6.94 6.28,-6.28 6.28,-6.28 L 6.28,-6.28 Z"></path></g><g transform="translate(137.35448815301072 63.26636602208021) rotate(0 4.81793212890625 3.042907714843764)" stroke="none"><path fill="#1e1e1e" d="M 8.93,-3.72 Q 8.93,-3.72 9.83,-2.04 10.73,-0.36 6.35,-1.15 1.97,-1.93 -1.28,1.77 -4.54,5.48 -3.76,0.95 -2.97,-3.56 1.44,-6.62 5.87,-9.67 2.58,-6.89 -0.69,-4.11 -1.23,0.79 -1.77,5.71 -2.05,5.91 -2.32,6.11 -3.45,4.52 -4.58,2.93 -5.15,1.06 -5.71,-0.80 -5.65,-2.75 -5.59,-4.70 -4.91,-6.53 -4.22,-8.36 -2.99,-9.87 -1.76,-11.39 -0.11,-12.43 1.52,-13.48 3.42,-13.94 5.32,-14.40 7.26,-14.23 9.21,-14.06 10.99,-13.28 12.78,-12.50 14.23,-11.19 15.68,-9.88 16.63,-8.18 17.58,-6.48 17.94,-4.56 18.30,-2.64 18.03,-0.71 17.75,1.22 16.88,2.96 16.00,4.70 14.61,6.08 13.23,7.45 11.48,8.31 9.72,9.17 7.79,9.42 5.85,9.68 3.94,9.30 2.02,8.92 0.33,7.95 -1.35,6.98 -2.65,5.52 -3.95,4.06 -4.71,2.27 -5.47,0.47 -5.62,-1.46 -5.77,-3.41 -5.29,-5.30 -4.81,-7.19 -3.75,-8.83 -2.69,-10.47 -1.16,-11.69 0.35,-12.90 2.19,-13.57 4.02,-14.23 5.98,-14.27 7.93,-14.32 9.79,-13.73 11.65,-13.15 13.23,-12.00 14.81,-10.86 14.81,-10.86 14.81,-10.86 17.55,-6.92 20.30,-2.99 19.67,2.80 19.04,8.60 12.01,10.80 4.98,13.00 10.87,12.11 16.77,11.23 13.06,14.85 9.35,18.47 4.39,18.11 -0.57,17.74 -4.19,12.55 -7.82,7.36 -8.37,5.54 -8.93,3.72 -9.24,2.59 -9.56,1.47 -9.60,0.31 -9.64,-0.85 -9.39,-1.99 -9.15,-3.13 -8.64,-4.18 -8.13,-5.23 -7.39,-6.13 -6.64,-7.03 -5.70,-7.72 -4.77,-8.41 -3.69,-8.86 -2.61,-9.31 -1.46,-9.49 -0.31,-9.67 0.85,-9.56 2.01,-9.46 3.11,-9.08 4.21,-8.70 5.20,-8.07 6.18,-7.44 6.98,-6.59 7.78,-5.75 8.35,-4.73 8.93,-3.72 8.93,-3.72 L 8.93,-3.72 Z"></path></g><g transform="translate(143.94744469597947 65.29496099278336) rotate(0 0.00005000000000165983 0.00004999999999988347)" stroke="none"><path fill="#1e1e1e" d="M 6.28,-6.28 Q 6.28,-6.28 7.11,-5.11 7.95,-3.94 8.37,-2.57 8.80,-1.19 8.76,0.23 8.72,1.67 8.22,3.02 7.73,4.37 6.83,5.49 5.93,6.61 4.72,7.38 3.50,8.15 2.11,8.50 0.72,8.85 -0.71,8.73 -2.14,8.61 -3.46,8.05 -4.78,7.48 -5.85,6.52 -6.92,5.56 -7.63,4.31 -8.33,3.06 -8.60,1.65 -8.87,0.23 -8.68,-1.18 -8.49,-2.60 -7.85,-3.89 -7.21,-5.18 -6.19,-6.19 -5.18,-7.21 -3.89,-7.85 -2.60,-8.49 -1.18,-8.68 0.24,-8.87 1.65,-8.60 3.06,-8.33 4.31,-7.62 5.56,-6.92 6.52,-5.85 7.48,-4.78 8.05,-3.46 8.62,-2.14 8.73,-0.70 8.85,0.72 8.50,2.11 8.15,3.51 7.38,4.72 6.61,5.93 5.48,6.83 4.36,7.73 3.02,8.22 1.67,8.72 0.23,8.76 -1.20,8.80 -2.57,8.37 -3.94,7.95 -5.11,7.11 -6.28,6.27 -6.28,6.27 -6.28,6.28 -6.94,5.43 -7.60,4.59 -8.04,3.61 -8.48,2.64 -8.67,1.58 -8.86,0.53 -8.80,-0.53 -8.73,-1.60 -8.41,-2.62 -8.09,-3.64 -7.54,-4.56 -6.99,-5.47 -6.23,-6.23 -5.47,-6.99 -4.56,-7.54 -3.64,-8.10 -2.62,-8.41 -1.60,-8.73 -0.53,-8.80 0.53,-8.86 1.59,-8.67 2.64,-8.48 3.61,-8.04 4.59,-7.60 5.43,-6.94 6.28,-6.28 6.28,-6.28 L 6.28,-6.28 Z"></path></g><g transform="translate(143.94744469597947 68.84500982090836) rotate(0 0.00005000000000165983 0.00004999999999988347)" stroke="none"><path fill="#1e1e1e" d="M 6.28,-6.28 Q 6.28,-6.28 7.11,-5.11 7.95,-3.94 8.37,-2.57 8.80,-1.19 8.76,0.23 8.72,1.67 8.22,3.02 7.73,4.37 6.83,5.49 5.93,6.61 4.72,7.38 3.50,8.15 2.11,8.50 0.72,8.85 -0.71,8.73 -2.14,8.61 -3.46,8.05 -4.78,7.48 -5.85,6.52 -6.92,5.56 -7.63,4.31 -8.33,3.06 -8.60,1.65 -8.87,0.23 -8.68,-1.18 -8.49,-2.60 -7.85,-3.89 -7.21,-5.18 -6.19,-6.19 -5.18,-7.21 -3.89,-7.85 -2.60,-8.49 -1.18,-8.68 0.24,-8.87 1.65,-8.60 3.06,-8.33 4.31,-7.62 5.56,-6.92 6.52,-5.85 7.48,-4.78 8.05,-3.46 8.62,-2.14 8.73,-0.70 8.85,0.72 8.50,2.11 8.15,3.51 7.38,4.72 6.61,5.93 5.48,6.83 4.36,7.73 3.02,8.22 1.67,8.72 0.23,8.76 -1.20,8.80 -2.57,8.37 -3.94,7.95 -5.11,7.11 -6.28,6.27 -6.28,6.27 -6.28,6.28 -6.94,5.43 -7.60,4.59 -8.04,3.61 -8.48,2.64 -8.67,1.58 -8.86,0.53 -8.80,-0.53 -8.73,-1.60 -8.41,-2.62 -8.09,-3.64 -7.54,-4.56 -6.99,-5.47 -6.23,-6.23 -5.47,-6.99 -4.56,-7.54 -3.64,-8.10 -2.62,-8.41 -1.60,-8.73 -0.53,-8.80 0.53,-8.86 1.59,-8.67 2.64,-8.48 3.61,-8.04 4.59,-7.60 5.43,-6.94 6.28,-6.28 6.28,-6.28 L 6.28,-6.28 Z"></path></g><g transform="translate(144.45461632683885 69.35218145176773) rotate(0 0.00005000000000165983 0.00004999999999988347)" stroke="none"><path fill="#1e1e1e" d="M 6.28,-6.28 Q 6.28,-6.28 7.11,-5.11 7.95,-3.94 8.37,-2.57 8.80,-1.19 8.76,0.23 8.72,1.67 8.22,3.02 7.73,4.37 6.83,5.49 5.93,6.61 4.72,7.38 3.50,8.15 2.11,8.50 0.72,8.85 -0.71,8.73 -2.14,8.61 -3.46,8.05 -4.78,7.48 -5.85,6.52 -6.92,5.56 -7.63,4.31 -8.33,3.06 -8.60,1.65 -8.87,0.23 -8.68,-1.18 -8.49,-2.60 -7.85,-3.89 -7.21,-5.18 -6.19,-6.19 -5.18,-7.21 -3.89,-7.85 -2.60,-8.49 -1.18,-8.68 0.24,-8.87 1.65,-8.60 3.06,-8.33 4.31,-7.62 5.56,-6.92 6.52,-5.85 7.48,-4.78 8.05,-3.46 8.62,-2.14 8.73,-0.70 8.85,0.72 8.50,2.11 8.15,3.51 7.38,4.72 6.61,5.93 5.48,6.83 4.36,7.73 3.02,8.22 1.67,8.72 0.23,8.76 -1.20,8.80 -2.57,8.37 -3.94,7.95 -5.11,7.11 -6.28,6.27 -6.28,6.27 -6.28,6.28 -6.94,5.43 -7.60,4.59 -8.04,3.61 -8.48,2.64 -8.67,1.58 -8.86,0.53 -8.80,-0.53 -8.73,-1.60 -8.41,-2.62 -8.09,-3.64 -7.54,-4.56 -6.99,-5.47 -6.23,-6.23 -5.47,-6.99 -4.56,-7.54 -3.64,-8.10 -2.62,-8.41 -1.60,-8.73 -0.53,-8.80 0.53,-8.86 1.59,-8.67 2.64,-8.48 3.61,-8.04 4.59,-7.60 5.43,-6.94 6.28,-6.28 6.28,-6.28 L 6.28,-6.28 Z"></path></g><g transform="translate(145.9760396666826 69.85932256504898) rotate(0 0.00005000000000165983 0.00004999999999988347)" stroke="none"><path fill="#1e1e1e" d="M 6.28,-6.28 Q 6.28,-6.28 7.11,-5.11 7.95,-3.94 8.37,-2.57 8.80,-1.19 8.76,0.23 8.72,1.67 8.22,3.02 7.73,4.37 6.83,5.49 5.93,6.61 4.72,7.38 3.50,8.15 2.11,8.50 0.72,8.85 -0.71,8.73 -2.14,8.61 -3.46,8.05 -4.78,7.48 -5.85,6.52 -6.92,5.56 -7.63,4.31 -8.33,3.06 -8.60,1.65 -8.87,0.23 -8.68,-1.18 -8.49,-2.60 -7.85,-3.89 -7.21,-5.18 -6.19,-6.19 -5.18,-7.21 -3.89,-7.85 -2.60,-8.49 -1.18,-8.68 0.24,-8.87 1.65,-8.60 3.06,-8.33 4.31,-7.62 5.56,-6.92 6.52,-5.85 7.48,-4.78 8.05,-3.46 8.62,-2.14 8.73,-0.70 8.85,0.72 8.50,2.11 8.15,3.51 7.38,4.72 6.61,5.93 5.48,6.83 4.36,7.73 3.02,8.22 1.67,8.72 0.23,8.76 -1.20,8.80 -2.57,8.37 -3.94,7.95 -5.11,7.11 -6.28,6.27 -6.28,6.27 -6.28,6.28 -6.94,5.43 -7.60,4.59 -8.04,3.61 -8.48,2.64 -8.67,1.58 -8.86,0.53 -8.80,-0.53 -8.73,-1.60 -8.41,-2.62 -8.09,-3.64 -7.54,-4.56 -6.99,-5.47 -6.23,-6.23 -5.47,-6.99 -4.56,-7.54 -3.64,-8.10 -2.62,-8.41 -1.60,-8.73 -0.53,-8.80 0.53,-8.86 1.59,-8.67 2.64,-8.48 3.61,-8.04 4.59,-7.60 5.43,-6.94 6.28,-6.28 6.28,-6.28 L 6.28,-6.28 Z"></path></g><g stroke-linecap="round"><g transform="translate(143.44030358269822 80.50949956700211) rotate(0 0.253570556640625 24.8503875732422)"><path d="M-0.34 0.32 C-0.24 8.61, 0.88 41.89, 0.93 50.04 M0.48 0.01 C0.52 8.11, 0.63 40.99, 0.72 49.24" stroke="#1e1e1e" stroke-width="2" fill="none"></path></g></g><mask></mask><g stroke-linecap="round"><g transform="translate(144.9617574401201 91.15964605137711) rotate(0 -10.903732299804688 6.846527099609389)"><path d="M-0.27 -0.45 C-3.82 1.75, -17.8 11.29, -21.39 13.67 M0.59 0.51 C-2.98 3.03, -17.82 12.03, -21.6 14.36" stroke="#1e1e1e" stroke-width="2" fill="none"></path></g></g><mask></mask></svg>