<svg version="1.1" xmlns="http://www.w3.org/2000/svg" viewBox="0 0 216.4217962503435 192.8755557775499" width="216.4217962503435" height="192.8755557775499" class="excalidraw-svg">
  <!-- svg-source:excalidraw -->
  
  <defs>
    <style class="style-fonts">
      @font-face {
        font-family: "Virgil";
        src: url("https://excalidraw.com/Virgil.woff2");
      }
      @font-face {
        font-family: "Cascadia";
        src: url("https://excalidraw.com/Cascadia.woff2");
      }
      @font-face {
        font-family: "Assistant";
        src: url("https://excalidraw.com/Assistant-Regular.woff2");
      }
    </style>
    
  </defs>
  <rect x="0" y="0" width="216.4217962503435" height="192.8755557775499" fill="#ffffff"></rect><g stroke-linecap="round"><g transform="translate(39.98159386590129 14.579918878525497) rotate(0 1.26788330078125 82.91910552978523)"><path d="M-0.9 0.14 C-0.65 28.04, 1.88 138.69, 2.5 166.34 M0.82 -0.83 C0.83 26.8, 1.3 136.43, 1.53 164.49" stroke="#1e1e1e" stroke-width="2" fill="none"></path></g></g><mask></mask><g stroke-linecap="round"><g transform="translate(10.566890496760607 182.44672490879907) rotate(0 97.88002014160165 -1.521453857421875)"><path d="M-0.57 0.43 C31.88 -0.14, 163.06 -2.47, 195.85 -2.99 M1.34 -0.39 C33.53 -0.79, 162.57 -1.29, 194.96 -1.43" stroke="#1e1e1e" stroke-width="2" fill="none"></path></g></g><mask></mask><g stroke-linecap="round"><g transform="translate(21.21706749871373 14.072777765244247) rotate(0 82.41192626953134 -1.521453857421875)"><path d="M0.72 0.35 C27.98 -0.32, 136.58 -3.43, 164.05 -4.07 M-0.36 -0.51 C27.24 -1.06, 138.77 -2.76, 166.36 -3.08" stroke="#1e1e1e" stroke-width="2" fill="none"></path></g></g><mask></mask><g stroke-linecap="round"><g transform="translate(27.809993524104357 50.58759404942396) rotate(0 25.357528686523466 -18.510986328125014)"><path d="M1.01 -0.11 C9.4 -6.12, 42.53 -29.99, 50.94 -36.26 M0.08 -1.21 C8.28 -7.55, 41.61 -32.06, 50.11 -37.98" stroke="#1e1e1e" stroke-width="2" fill="none"></path></g></g><mask></mask><g stroke-linecap="round"><g transform="translate(40.995906610041914 141.36753179356464) rotate(0 -9.382278442382841 19.77888488769534)"><path d="M1.06 -0.57 C-1.79 5.78, -14.67 31.7, -18.04 38.39 M0.16 1.75 C-2.71 8.17, -15.23 32.79, -18.61 39.31" stroke="#1e1e1e" stroke-width="2" fill="none"></path></g></g><mask></mask><g stroke-linecap="round"><g transform="translate(42.01021935418254 141.874703424424) rotate(0 12.932327270507812 19.525299072265653)"><path d="M-1.04 -0.47 C3.09 6.07, 21.46 32.84, 25.78 39.61 M0.61 -1.77 C4.5 4.39, 20.35 31.09, 24.79 37.78" stroke="#1e1e1e" stroke-width="2" fill="none"></path></g></g><mask></mask><g stroke-linecap="round" transform="translate(98.81103112176066 94.20258428379901) rotate(0 18.003860473632812 10.14300537109375)"><path d="M17.68 -0.04 C21.24 -0.12, 26.1 1.38, 29.09 2.81 C32.07 4.25, 34.89 6.52, 35.59 8.58 C36.28 10.64, 35.06 13.3, 33.25 15.17 C31.45 17.04, 28.33 18.98, 24.75 19.8 C21.16 20.63, 15.4 20.96, 11.74 20.13 C8.08 19.29, 4.66 16.81, 2.8 14.79 C0.94 12.78, -0.07 10.12, 0.57 8.05 C1.21 5.99, 3.68 3.8, 6.62 2.39 C9.56 0.99, 16.18 0.01, 18.21 -0.37 C20.25 -0.76, 18.83 -0.14, 18.84 0.06 M19.54 0.12 C23.1 0.19, 27.92 2.04, 30.66 3.54 C33.4 5.05, 35.68 7.12, 35.99 9.14 C36.29 11.16, 34.86 13.97, 32.48 15.66 C30.1 17.34, 25.46 18.64, 21.71 19.25 C17.96 19.87, 13.43 20.08, 9.97 19.33 C6.51 18.58, 2.63 16.63, 0.98 14.73 C-0.68 12.83, -1.23 10, 0.03 7.94 C1.3 5.87, 5.19 3.56, 8.59 2.33 C11.99 1.1, 18.43 0.89, 20.43 0.54 C22.43 0.18, 20.81 0.14, 20.58 0.2" stroke="#1e1e1e" stroke-width="1" fill="none"></path></g><g stroke-linecap="round"><g transform="translate(134.8187520690263 109.92423345372089) rotate(0 20.539581298828153 8.36798095703125)"><path d="M1.19 -0.49 C8.19 2.42, 35.55 13.46, 42.04 16.51 M0.35 -1.8 C7.27 1.39, 34.56 14.95, 41.6 17.93" stroke="#1e1e1e" stroke-width="1" fill="none"></path></g></g><mask></mask><g stroke-linecap="round"><g transform="translate(148.5118062682451 111.95282842442401) rotate(0 0.50714111328125 -9.889434814453125)"><path d="M0.27 -0.24 C0.44 -3.55, 0.92 -16.53, 1.02 -19.74 M-0.25 -0.83 C-0.16 -4.06, 0.47 -15.75, 0.59 -19.02" stroke="#1e1e1e" stroke-width="1" fill="none"></path></g></g><mask></mask><g stroke-linecap="round"><g transform="translate(145.46889855340135 115.50287725254901) rotate(0 -6.592956542968778 5.071502685546875)"><path d="M0 0.27 C-2.13 2.09, -11.19 8.83, -13.33 10.53 M-0.67 -0.07 C-2.84 1.63, -11.77 8.16, -13.84 9.76" stroke="#1e1e1e" stroke-width="1" fill="none"></path></g></g><mask></mask><g stroke-linecap="round"><g transform="translate(173.86928917840135 126.66019536778339) rotate(0 2.5357666015625 12.425186157226591)"><path d="M-0.24 0.33 C0.6 4.41, 4.45 20.53, 5.32 24.7 M0.63 0.02 C1.41 4.16, 4.35 21.24, 5.02 25.32" stroke="#1e1e1e" stroke-width="1" fill="none"></path></g></g><mask></mask><g stroke-linecap="round"><g transform="translate(174.37649132683885 126.15302373692401) rotate(0 12.678741455078125 13.185913085937528)"><path d="M-0.78 0.45 C3.54 4.95, 21.08 21.76, 25.58 26.04 M1.01 -0.36 C5.23 4.4, 20.6 22.79, 24.76 27.41" stroke="#1e1e1e" stroke-width="1" fill="none"></path></g></g><mask></mask><g transform="translate(114.53271080926066 102.31696416661151) rotate(0 0.00005000000000165983 0.00005000000000165983)" stroke="none"><path fill="#1e1e1e" d="M 6.28,-6.28 Q 6.28,-6.28 7.11,-5.11 7.95,-3.94 8.37,-2.57 8.80,-1.19 8.76,0.23 8.72,1.67 8.22,3.02 7.73,4.37 6.83,5.49 5.93,6.61 4.72,7.38 3.50,8.15 2.11,8.50 0.72,8.85 -0.71,8.73 -2.14,8.61 -3.46,8.05 -4.78,7.48 -5.85,6.52 -6.92,5.56 -7.63,4.31 -8.33,3.06 -8.60,1.65 -8.87,0.23 -8.68,-1.18 -8.49,-2.60 -7.85,-3.89 -7.21,-5.18 -6.19,-6.19 -5.18,-7.21 -3.89,-7.85 -2.60,-8.49 -1.18,-8.68 0.24,-8.87 1.65,-8.60 3.06,-8.33 4.31,-7.62 5.56,-6.92 6.52,-5.85 7.48,-4.78 8.05,-3.46 8.62,-2.14 8.73,-0.70 8.85,0.72 8.50,2.11 8.15,3.51 7.38,4.72 6.61,5.93 5.48,6.83 4.36,7.73 3.02,8.22 1.67,8.72 0.23,8.76 -1.20,8.80 -2.57,8.37 -3.94,7.95 -5.11,7.11 -6.28,6.27 -6.28,6.27 -6.28,6.28 -6.94,5.43 -7.60,4.59 -8.04,3.61 -8.48,2.64 -8.67,1.58 -8.86,0.53 -8.80,-0.53 -8.73,-1.60 -8.41,-2.62 -8.09,-3.64 -7.54,-4.56 -6.99,-5.47 -6.23,-6.23 -5.47,-6.99 -4.56,-7.54 -3.64,-8.10 -2.62,-8.41 -1.60,-8.73 -0.53,-8.80 0.53,-8.86 1.59,-8.67 2.64,-8.48 3.61,-8.04 4.59,-7.60 5.43,-6.94 6.28,-6.28 6.28,-6.28 L 6.28,-6.28 Z"></path></g><g transform="translate(110.47555138543254 106.88132573887714) rotate(0 0.00005000000000165983 0.00005000000000165983)" stroke="none"><path fill="#1e1e1e" d="M 6.28,-6.28 Q 6.28,-6.28 7.11,-5.11 7.95,-3.94 8.37,-2.57 8.80,-1.19 8.76,0.23 8.72,1.67 8.22,3.02 7.73,4.37 6.83,5.49 5.93,6.61 4.72,7.38 3.50,8.15 2.11,8.50 0.72,8.85 -0.71,8.73 -2.14,8.61 -3.46,8.05 -4.78,7.48 -5.85,6.52 -6.92,5.56 -7.63,4.31 -8.33,3.06 -8.60,1.65 -8.87,0.23 -8.68,-1.18 -8.49,-2.60 -7.85,-3.89 -7.21,-5.18 -6.19,-6.19 -5.18,-7.21 -3.89,-7.85 -2.60,-8.49 -1.18,-8.68 0.24,-8.87 1.65,-8.60 3.06,-8.33 4.31,-7.62 5.56,-6.92 6.52,-5.85 7.48,-4.78 8.05,-3.46 8.62,-2.14 8.73,-0.70 8.85,0.72 8.50,2.11 8.15,3.51 7.38,4.72 6.61,5.93 5.48,6.83 4.36,7.73 3.02,8.22 1.67,8.72 0.23,8.76 -1.20,8.80 -2.57,8.37 -3.94,7.95 -5.11,7.11 -6.28,6.27 -6.28,6.27 -6.28,6.28 -6.94,5.43 -7.60,4.59 -8.04,3.61 -8.48,2.64 -8.67,1.58 -8.86,0.53 -8.80,-0.53 -8.73,-1.60 -8.41,-2.62 -8.09,-3.64 -7.54,-4.56 -6.99,-5.47 -6.23,-6.23 -5.47,-6.99 -4.56,-7.54 -3.64,-8.10 -2.62,-8.41 -1.60,-8.73 -0.53,-8.80 0.53,-8.86 1.59,-8.67 2.64,-8.48 3.61,-8.04 4.59,-7.60 5.43,-6.94 6.28,-6.28 6.28,-6.28 L 6.28,-6.28 Z"></path></g><g transform="translate(106.92544152215129 105.86701299473651) rotate(0 0.00005000000000165983 0.00005000000000165983)" stroke="none"><path fill="#1e1e1e" d="M 6.28,-6.28 Q 6.28,-6.28 7.11,-5.11 7.95,-3.94 8.37,-2.57 8.80,-1.19 8.76,0.23 8.72,1.67 8.22,3.02 7.73,4.37 6.83,5.49 5.93,6.61 4.72,7.38 3.50,8.15 2.11,8.50 0.72,8.85 -0.71,8.73 -2.14,8.61 -3.46,8.05 -4.78,7.48 -5.85,6.52 -6.92,5.56 -7.63,4.31 -8.33,3.06 -8.60,1.65 -8.87,0.23 -8.68,-1.18 -8.49,-2.60 -7.85,-3.89 -7.21,-5.18 -6.19,-6.19 -5.18,-7.21 -3.89,-7.85 -2.60,-8.49 -1.18,-8.68 0.24,-8.87 1.65,-8.60 3.06,-8.33 4.31,-7.62 5.56,-6.92 6.52,-5.85 7.48,-4.78 8.05,-3.46 8.62,-2.14 8.73,-0.70 8.85,0.72 8.50,2.11 8.15,3.51 7.38,4.72 6.61,5.93 5.48,6.83 4.36,7.73 3.02,8.22 1.67,8.72 0.23,8.76 -1.20,8.80 -2.57,8.37 -3.94,7.95 -5.11,7.11 -6.28,6.27 -6.28,6.27 -6.28,6.28 -6.94,5.43 -7.60,4.59 -8.04,3.61 -8.48,2.64 -8.67,1.58 -8.86,0.53 -8.80,-0.53 -8.73,-1.60 -8.41,-2.62 -8.09,-3.64 -7.54,-4.56 -6.99,-5.47 -6.23,-6.23 -5.47,-6.99 -4.56,-7.54 -3.64,-8.10 -2.62,-8.41 -1.60,-8.73 -0.53,-8.80 0.53,-8.86 1.59,-8.67 2.64,-8.48 3.61,-8.04 4.59,-7.60 5.43,-6.94 6.28,-6.28 6.28,-6.28 L 6.28,-6.28 Z"></path></g><g transform="translate(110.98266198113566 105.35987188145526) rotate(0 1.014312744140625 0.253570556640625)" stroke="none"><path fill="#1e1e1e" d="M 3.38,-8.58 Q 3.38,-8.58 4.74,-7.99 6.10,-7.41 7.20,-6.42 8.30,-5.43 9.03,-4.14 9.75,-2.85 10.03,-1.39 10.31,0.05 10.11,1.52 9.90,2.98 9.25,4.31 8.59,5.63 7.54,6.68 6.49,7.72 5.16,8.38 3.84,9.04 2.37,9.23 0.90,9.43 -0.54,9.15 -2.00,8.87 -3.28,8.14 -4.57,7.41 -5.56,6.31 -6.54,5.20 -7.13,3.84 -7.71,2.48 -7.83,1.01 -7.95,-0.46 -7.59,-1.89 -7.23,-3.33 -6.43,-4.58 -5.63,-5.82 -4.48,-6.75 -3.32,-7.67 -1.93,-8.18 -0.54,-8.69 0.93,-8.73 2.41,-8.77 3.82,-8.33 5.24,-7.89 6.44,-7.03 7.64,-6.16 8.50,-4.96 9.36,-3.76 9.80,-2.34 10.23,-0.93 10.19,0.54 10.14,2.02 9.63,3.41 9.12,4.80 8.19,5.95 7.26,7.11 6.01,7.90 4.76,8.70 3.33,9.05 1.89,9.41 0.41,9.29 -1.05,9.16 -1.05,9.16 -1.05,9.16 -2.13,8.90 -3.21,8.64 -4.20,8.13 -5.19,7.62 -6.03,6.89 -6.86,6.16 -7.50,5.25 -8.14,4.34 -8.54,3.30 -8.94,2.26 -9.08,1.16 -9.22,0.05 -9.10,-1.04 -8.97,-2.15 -8.58,-3.19 -8.19,-4.23 -7.57,-5.15 -6.94,-6.07 -6.11,-6.81 -5.29,-7.56 -4.30,-8.08 -3.32,-8.60 -2.24,-8.88 -1.17,-9.15 -0.05,-9.16 1.05,-9.16 2.21,-8.87 L 3.38,-8.58 Z"></path></g><g transform="translate(114.53271080926066 106.88132573887714) rotate(0 0.00005000000000165983 0.00005000000000165983)" stroke="none"><path fill="#1e1e1e" d="M 6.28,-6.28 Q 6.28,-6.28 7.11,-5.11 7.95,-3.94 8.37,-2.57 8.80,-1.19 8.76,0.23 8.72,1.67 8.22,3.02 7.73,4.37 6.83,5.49 5.93,6.61 4.72,7.38 3.50,8.15 2.11,8.50 0.72,8.85 -0.71,8.73 -2.14,8.61 -3.46,8.05 -4.78,7.48 -5.85,6.52 -6.92,5.56 -7.63,4.31 -8.33,3.06 -8.60,1.65 -8.87,0.23 -8.68,-1.18 -8.49,-2.60 -7.85,-3.89 -7.21,-5.18 -6.19,-6.19 -5.18,-7.21 -3.89,-7.85 -2.60,-8.49 -1.18,-8.68 0.24,-8.87 1.65,-8.60 3.06,-8.33 4.31,-7.62 5.56,-6.92 6.52,-5.85 7.48,-4.78 8.05,-3.46 8.62,-2.14 8.73,-0.70 8.85,0.72 8.50,2.11 8.15,3.51 7.38,4.72 6.61,5.93 5.48,6.83 4.36,7.73 3.02,8.22 1.67,8.72 0.23,8.76 -1.20,8.80 -2.57,8.37 -3.94,7.95 -5.11,7.11 -6.28,6.27 -6.28,6.27 -6.28,6.28 -6.94,5.43 -7.60,4.59 -8.04,3.61 -8.48,2.64 -8.67,1.58 -8.86,0.53 -8.80,-0.53 -8.73,-1.60 -8.41,-2.62 -8.09,-3.64 -7.54,-4.56 -6.99,-5.47 -6.23,-6.23 -5.47,-6.99 -4.56,-7.54 -3.64,-8.10 -2.62,-8.41 -1.60,-8.73 -0.53,-8.80 0.53,-8.86 1.59,-8.67 2.64,-8.48 3.61,-8.04 4.59,-7.60 5.43,-6.94 6.28,-6.28 6.28,-6.28 L 6.28,-6.28 Z"></path></g><g transform="translate(114.53271080926066 106.88132573887714) rotate(0 0.00005000000000165983 0.00005000000000165983)" stroke="none"><path fill="#1e1e1e" d="M 6.28,-6.28 Q 6.28,-6.28 7.11,-5.11 7.95,-3.94 8.37,-2.57 8.80,-1.19 8.76,0.23 8.72,1.67 8.22,3.02 7.73,4.37 6.83,5.49 5.93,6.61 4.72,7.38 3.50,8.15 2.11,8.50 0.72,8.85 -0.71,8.73 -2.14,8.61 -3.46,8.05 -4.78,7.48 -5.85,6.52 -6.92,5.56 -7.63,4.31 -8.33,3.06 -8.60,1.65 -8.87,0.23 -8.68,-1.18 -8.49,-2.60 -7.85,-3.89 -7.21,-5.18 -6.19,-6.19 -5.18,-7.21 -3.89,-7.85 -2.60,-8.49 -1.18,-8.68 0.24,-8.87 1.65,-8.60 3.06,-8.33 4.31,-7.62 5.56,-6.92 6.52,-5.85 7.48,-4.78 8.05,-3.46 8.62,-2.14 8.73,-0.70 8.85,0.72 8.50,2.11 8.15,3.51 7.38,4.72 6.61,5.93 5.48,6.83 4.36,7.73 3.02,8.22 1.67,8.72 0.23,8.76 -1.20,8.80 -2.57,8.37 -3.94,7.95 -5.11,7.11 -6.28,6.27 -6.28,6.27 -6.28,6.28 -6.94,5.43 -7.60,4.59 -8.04,3.61 -8.48,2.64 -8.67,1.58 -8.86,0.53 -8.80,-0.53 -8.73,-1.60 -8.41,-2.62 -8.09,-3.64 -7.54,-4.56 -6.99,-5.47 -6.23,-6.23 -5.47,-6.99 -4.56,-7.54 -3.64,-8.10 -2.62,-8.41 -1.60,-8.73 -0.53,-8.80 0.53,-8.86 1.59,-8.67 2.64,-8.48 3.61,-8.04 4.59,-7.60 5.43,-6.94 6.28,-6.28 6.28,-6.28 L 6.28,-6.28 Z"></path></g><g transform="translate(115.54705407097941 106.88132573887714) rotate(0 0.2535552978515625 0)" stroke="none"><path fill="#1e1e1e" d="M 0.29,-8.95 Q 0.29,-8.95 1.72,-8.71 3.15,-8.48 4.43,-7.80 5.70,-7.12 6.70,-6.07 7.70,-5.02 8.31,-3.70 8.91,-2.39 9.07,-0.95 9.23,0.48 8.92,1.89 8.60,3.31 7.86,4.55 7.11,5.79 6.01,6.73 4.90,7.67 3.56,8.20 2.21,8.74 0.76,8.82 -0.67,8.90 -2.07,8.51 -3.46,8.12 -4.66,7.31 -5.86,6.49 -6.74,5.34 -7.61,4.19 -8.08,2.81 -8.54,1.44 -8.54,-0.00 -8.54,-1.44 -8.08,-2.82 -7.61,-4.19 -6.74,-5.34 -5.86,-6.50 -4.66,-7.31 -3.46,-8.12 -2.07,-8.51 -0.67,-8.90 0.77,-8.82 2.21,-8.74 3.56,-8.20 4.90,-7.67 6.01,-6.73 7.11,-5.79 7.86,-4.55 8.60,-3.31 8.92,-1.89 9.23,-0.48 9.07,0.95 8.91,2.39 8.30,3.71 7.70,5.02 6.70,6.07 5.70,7.12 4.42,7.80 3.14,8.48 1.71,8.71 0.28,8.95 0.29,8.95 0.29,8.95 -0.78,8.85 -1.85,8.76 -2.88,8.41 -3.90,8.06 -4.81,7.47 -5.71,6.89 -6.46,6.11 -7.20,5.32 -7.73,4.38 -8.26,3.44 -8.56,2.40 -8.85,1.36 -8.88,0.28 -8.92,-0.79 -8.69,-1.84 -8.47,-2.90 -8.00,-3.87 -7.53,-4.84 -6.84,-5.67 -6.15,-6.50 -5.28,-7.15 -4.41,-7.79 -3.42,-8.20 -2.42,-8.62 -1.35,-8.78 -0.29,-8.95 0.00,-8.95 L 0.29,-8.95 Z"></path></g><g transform="translate(116.05416466668254 106.88132573887714) rotate(0 0.253570556640625 0)" stroke="none"><path fill="#1e1e1e" d="M 0.29,-8.95 Q 0.29,-8.95 1.72,-8.71 3.15,-8.48 4.43,-7.80 5.70,-7.12 6.70,-6.07 7.70,-5.02 8.31,-3.70 8.91,-2.39 9.07,-0.95 9.23,0.48 8.92,1.89 8.60,3.31 7.86,4.55 7.11,5.79 6.01,6.73 4.90,7.67 3.56,8.20 2.21,8.74 0.76,8.82 -0.67,8.90 -2.07,8.51 -3.46,8.12 -4.66,7.31 -5.86,6.49 -6.74,5.34 -7.61,4.19 -8.08,2.81 -8.54,1.44 -8.54,-0.00 -8.54,-1.44 -8.08,-2.82 -7.61,-4.19 -6.74,-5.34 -5.86,-6.50 -4.66,-7.31 -3.46,-8.12 -2.07,-8.51 -0.67,-8.90 0.77,-8.82 2.21,-8.74 3.56,-8.20 4.90,-7.67 6.01,-6.73 7.11,-5.79 7.86,-4.55 8.60,-3.31 8.92,-1.89 9.23,-0.48 9.07,0.95 8.91,2.39 8.30,3.71 7.70,5.02 6.70,6.07 5.70,7.12 4.42,7.80 3.14,8.48 1.71,8.71 0.28,8.95 0.29,8.95 0.29,8.95 -0.78,8.85 -1.85,8.76 -2.88,8.41 -3.90,8.06 -4.81,7.47 -5.71,6.89 -6.46,6.11 -7.20,5.32 -7.73,4.38 -8.26,3.44 -8.56,2.40 -8.85,1.36 -8.88,0.28 -8.92,-0.79 -8.69,-1.84 -8.47,-2.90 -8.00,-3.87 -7.53,-4.84 -6.84,-5.67 -6.15,-6.50 -5.28,-7.15 -4.41,-7.79 -3.42,-8.20 -2.42,-8.62 -1.35,-8.78 -0.29,-8.95 0.00,-8.95 L 0.29,-8.95 Z"></path></g><g transform="translate(117.57561852410441 106.88132573887714) rotate(0 0.00005000000000165983 0.00005000000000165983)" stroke="none"><path fill="#1e1e1e" d="M 6.28,-6.28 Q 6.28,-6.28 7.11,-5.11 7.95,-3.94 8.37,-2.57 8.80,-1.19 8.76,0.23 8.72,1.67 8.22,3.02 7.73,4.37 6.83,5.49 5.93,6.61 4.72,7.38 3.50,8.15 2.11,8.50 0.72,8.85 -0.71,8.73 -2.14,8.61 -3.46,8.05 -4.78,7.48 -5.85,6.52 -6.92,5.56 -7.63,4.31 -8.33,3.06 -8.60,1.65 -8.87,0.23 -8.68,-1.18 -8.49,-2.60 -7.85,-3.89 -7.21,-5.18 -6.19,-6.19 -5.18,-7.21 -3.89,-7.85 -2.60,-8.49 -1.18,-8.68 0.24,-8.87 1.65,-8.60 3.06,-8.33 4.31,-7.62 5.56,-6.92 6.52,-5.85 7.48,-4.78 8.05,-3.46 8.62,-2.14 8.73,-0.70 8.85,0.72 8.50,2.11 8.15,3.51 7.38,4.72 6.61,5.93 5.48,6.83 4.36,7.73 3.02,8.22 1.67,8.72 0.23,8.76 -1.20,8.80 -2.57,8.37 -3.94,7.95 -5.11,7.11 -6.28,6.27 -6.28,6.27 -6.28,6.28 -6.94,5.43 -7.60,4.59 -8.04,3.61 -8.48,2.64 -8.67,1.58 -8.86,0.53 -8.80,-0.53 -8.73,-1.60 -8.41,-2.62 -8.09,-3.64 -7.54,-4.56 -6.99,-5.47 -6.23,-6.23 -5.47,-6.99 -4.56,-7.54 -3.64,-8.10 -2.62,-8.41 -1.60,-8.73 -0.53,-8.80 0.53,-8.86 1.59,-8.67 2.64,-8.48 3.61,-8.04 4.59,-7.60 5.43,-6.94 6.28,-6.28 6.28,-6.28 L 6.28,-6.28 Z"></path></g><g transform="translate(117.57561852410441 106.88132573887714) rotate(0 0.2535858154296875 0)" stroke="none"><path fill="#1e1e1e" d="M 0.29,-8.95 Q 0.29,-8.95 1.72,-8.71 3.15,-8.48 4.43,-7.80 5.70,-7.12 6.70,-6.07 7.70,-5.02 8.31,-3.70 8.91,-2.39 9.07,-0.95 9.23,0.48 8.92,1.89 8.60,3.31 7.86,4.55 7.11,5.79 6.01,6.73 4.90,7.67 3.56,8.20 2.21,8.74 0.76,8.82 -0.67,8.90 -2.07,8.51 -3.46,8.12 -4.66,7.31 -5.86,6.49 -6.74,5.34 -7.61,4.19 -8.08,2.81 -8.54,1.44 -8.54,-0.00 -8.54,-1.44 -8.08,-2.82 -7.61,-4.19 -6.74,-5.34 -5.86,-6.50 -4.66,-7.31 -3.46,-8.12 -2.07,-8.51 -0.67,-8.90 0.77,-8.82 2.21,-8.74 3.56,-8.20 4.90,-7.67 6.01,-6.73 7.11,-5.79 7.86,-4.55 8.60,-3.31 8.92,-1.89 9.23,-0.48 9.07,0.95 8.91,2.39 8.30,3.71 7.70,5.02 6.70,6.07 5.70,7.12 4.42,7.80 3.14,8.48 1.71,8.71 0.28,8.95 0.29,8.95 0.29,8.95 -0.78,8.85 -1.85,8.76 -2.88,8.41 -3.90,8.06 -4.81,7.47 -5.71,6.89 -6.46,6.11 -7.20,5.32 -7.73,4.38 -8.26,3.44 -8.56,2.40 -8.85,1.36 -8.88,0.28 -8.92,-0.79 -8.69,-1.84 -8.47,-2.90 -8.00,-3.87 -7.53,-4.84 -6.84,-5.67 -6.15,-6.50 -5.28,-7.15 -4.41,-7.79 -3.42,-8.20 -2.42,-8.62 -1.35,-8.78 -0.29,-8.95 0.00,-8.95 L 0.29,-8.95 Z"></path></g><g transform="translate(118.08279015496379 106.88132573887714) rotate(0 0.00005000000000165983 0.00005000000000165983)" stroke="none"><path fill="#1e1e1e" d="M 6.28,-6.28 Q 6.28,-6.28 7.11,-5.11 7.95,-3.94 8.37,-2.57 8.80,-1.19 8.76,0.23 8.72,1.67 8.22,3.02 7.73,4.37 6.83,5.49 5.93,6.61 4.72,7.38 3.50,8.15 2.11,8.50 0.72,8.85 -0.71,8.73 -2.14,8.61 -3.46,8.05 -4.78,7.48 -5.85,6.52 -6.92,5.56 -7.63,4.31 -8.33,3.06 -8.60,1.65 -8.87,0.23 -8.68,-1.18 -8.49,-2.60 -7.85,-3.89 -7.21,-5.18 -6.19,-6.19 -5.18,-7.21 -3.89,-7.85 -2.60,-8.49 -1.18,-8.68 0.24,-8.87 1.65,-8.60 3.06,-8.33 4.31,-7.62 5.56,-6.92 6.52,-5.85 7.48,-4.78 8.05,-3.46 8.62,-2.14 8.73,-0.70 8.85,0.72 8.50,2.11 8.15,3.51 7.38,4.72 6.61,5.93 5.48,6.83 4.36,7.73 3.02,8.22 1.67,8.72 0.23,8.76 -1.20,8.80 -2.57,8.37 -3.94,7.95 -5.11,7.11 -6.28,6.27 -6.28,6.27 -6.28,6.28 -6.94,5.43 -7.60,4.59 -8.04,3.61 -8.48,2.64 -8.67,1.58 -8.86,0.53 -8.80,-0.53 -8.73,-1.60 -8.41,-2.62 -8.09,-3.64 -7.54,-4.56 -6.99,-5.47 -6.23,-6.23 -5.47,-6.99 -4.56,-7.54 -3.64,-8.10 -2.62,-8.41 -1.60,-8.73 -0.53,-8.80 0.53,-8.86 1.59,-8.67 2.64,-8.48 3.61,-8.04 4.59,-7.60 5.43,-6.94 6.28,-6.28 6.28,-6.28 L 6.28,-6.28 Z"></path></g><g transform="translate(118.58990075066691 105.86701299473651) rotate(0 0.00005000000000165983 0.00005000000000165983)" stroke="none"><path fill="#1e1e1e" d="M 6.28,-6.28 Q 6.28,-6.28 7.11,-5.11 7.95,-3.94 8.37,-2.57 8.80,-1.19 8.76,0.23 8.72,1.67 8.22,3.02 7.73,4.37 6.83,5.49 5.93,6.61 4.72,7.38 3.50,8.15 2.11,8.50 0.72,8.85 -0.71,8.73 -2.14,8.61 -3.46,8.05 -4.78,7.48 -5.85,6.52 -6.92,5.56 -7.63,4.31 -8.33,3.06 -8.60,1.65 -8.87,0.23 -8.68,-1.18 -8.49,-2.60 -7.85,-3.89 -7.21,-5.18 -6.19,-6.19 -5.18,-7.21 -3.89,-7.85 -2.60,-8.49 -1.18,-8.68 0.24,-8.87 1.65,-8.60 3.06,-8.33 4.31,-7.62 5.56,-6.92 6.52,-5.85 7.48,-4.78 8.05,-3.46 8.62,-2.14 8.73,-0.70 8.85,0.72 8.50,2.11 8.15,3.51 7.38,4.72 6.61,5.93 5.48,6.83 4.36,7.73 3.02,8.22 1.67,8.72 0.23,8.76 -1.20,8.80 -2.57,8.37 -3.94,7.95 -5.11,7.11 -6.28,6.27 -6.28,6.27 -6.28,6.28 -6.94,5.43 -7.60,4.59 -8.04,3.61 -8.48,2.64 -8.67,1.58 -8.86,0.53 -8.80,-0.53 -8.73,-1.60 -8.41,-2.62 -8.09,-3.64 -7.54,-4.56 -6.99,-5.47 -6.23,-6.23 -5.47,-6.99 -4.56,-7.54 -3.64,-8.10 -2.62,-8.41 -1.60,-8.73 -0.53,-8.80 0.53,-8.86 1.59,-8.67 2.64,-8.48 3.61,-8.04 4.59,-7.60 5.43,-6.94 6.28,-6.28 6.28,-6.28 L 6.28,-6.28 Z"></path></g><g transform="translate(118.58990075066691 105.35987188145526) rotate(0 0.00005000000000165983 0.00005000000000165983)" stroke="none"><path fill="#1e1e1e" d="M 6.28,-6.28 Q 6.28,-6.28 7.11,-5.11 7.95,-3.94 8.37,-2.57 8.80,-1.19 8.76,0.23 8.72,1.67 8.22,3.02 7.73,4.37 6.83,5.49 5.93,6.61 4.72,7.38 3.50,8.15 2.11,8.50 0.72,8.85 -0.71,8.73 -2.14,8.61 -3.46,8.05 -4.78,7.48 -5.85,6.52 -6.92,5.56 -7.63,4.31 -8.33,3.06 -8.60,1.65 -8.87,0.23 -8.68,-1.18 -8.49,-2.60 -7.85,-3.89 -7.21,-5.18 -6.19,-6.19 -5.18,-7.21 -3.89,-7.85 -2.60,-8.49 -1.18,-8.68 0.24,-8.87 1.65,-8.60 3.06,-8.33 4.31,-7.62 5.56,-6.92 6.52,-5.85 7.48,-4.78 8.05,-3.46 8.62,-2.14 8.73,-0.70 8.85,0.72 8.50,2.11 8.15,3.51 7.38,4.72 6.61,5.93 5.48,6.83 4.36,7.73 3.02,8.22 1.67,8.72 0.23,8.76 -1.20,8.80 -2.57,8.37 -3.94,7.95 -5.11,7.11 -6.28,6.27 -6.28,6.27 -6.28,6.28 -6.94,5.43 -7.60,4.59 -8.04,3.61 -8.48,2.64 -8.67,1.58 -8.86,0.53 -8.80,-0.53 -8.73,-1.60 -8.41,-2.62 -8.09,-3.64 -7.54,-4.56 -6.99,-5.47 -6.23,-6.23 -5.47,-6.99 -4.56,-7.54 -3.64,-8.10 -2.62,-8.41 -1.60,-8.73 -0.53,-8.80 0.53,-8.86 1.59,-8.67 2.64,-8.48 3.61,-8.04 4.59,-7.60 5.43,-6.94 6.28,-6.28 6.28,-6.28 L 6.28,-6.28 Z"></path></g><g transform="translate(120.11135460808879 102.31696416661151) rotate(0 0.00005000000000165983 0.00005000000000165983)" stroke="none"><path fill="#1e1e1e" d="M 6.28,-6.28 Q 6.28,-6.28 7.11,-5.11 7.95,-3.94 8.37,-2.57 8.80,-1.19 8.76,0.23 8.72,1.67 8.22,3.02 7.73,4.37 6.83,5.49 5.93,6.61 4.72,7.38 3.50,8.15 2.11,8.50 0.72,8.85 -0.71,8.73 -2.14,8.61 -3.46,8.05 -4.78,7.48 -5.85,6.52 -6.92,5.56 -7.63,4.31 -8.33,3.06 -8.60,1.65 -8.87,0.23 -8.68,-1.18 -8.49,-2.60 -7.85,-3.89 -7.21,-5.18 -6.19,-6.19 -5.18,-7.21 -3.89,-7.85 -2.60,-8.49 -1.18,-8.68 0.24,-8.87 1.65,-8.60 3.06,-8.33 4.31,-7.62 5.56,-6.92 6.52,-5.85 7.48,-4.78 8.05,-3.46 8.62,-2.14 8.73,-0.70 8.85,0.72 8.50,2.11 8.15,3.51 7.38,4.72 6.61,5.93 5.48,6.83 4.36,7.73 3.02,8.22 1.67,8.72 0.23,8.76 -1.20,8.80 -2.57,8.37 -3.94,7.95 -5.11,7.11 -6.28,6.27 -6.28,6.27 -6.28,6.28 -6.94,5.43 -7.60,4.59 -8.04,3.61 -8.48,2.64 -8.67,1.58 -8.86,0.53 -8.80,-0.53 -8.73,-1.60 -8.41,-2.62 -8.09,-3.64 -7.54,-4.56 -6.99,-5.47 -6.23,-6.23 -5.47,-6.99 -4.56,-7.54 -3.64,-8.10 -2.62,-8.41 -1.60,-8.73 -0.53,-8.80 0.53,-8.86 1.59,-8.67 2.64,-8.48 3.61,-8.04 4.59,-7.60 5.43,-6.94 6.28,-6.28 6.28,-6.28 L 6.28,-6.28 Z"></path></g><g transform="translate(121.12566735222941 103.33124639317401) rotate(0 0.00005000000000165983 0.00005000000000165983)" stroke="none"><path fill="#1e1e1e" d="M 6.28,-6.28 Q 6.28,-6.28 7.11,-5.11 7.95,-3.94 8.37,-2.57 8.80,-1.19 8.76,0.23 8.72,1.67 8.22,3.02 7.73,4.37 6.83,5.49 5.93,6.61 4.72,7.38 3.50,8.15 2.11,8.50 0.72,8.85 -0.71,8.73 -2.14,8.61 -3.46,8.05 -4.78,7.48 -5.85,6.52 -6.92,5.56 -7.63,4.31 -8.33,3.06 -8.60,1.65 -8.87,0.23 -8.68,-1.18 -8.49,-2.60 -7.85,-3.89 -7.21,-5.18 -6.19,-6.19 -5.18,-7.21 -3.89,-7.85 -2.60,-8.49 -1.18,-8.68 0.24,-8.87 1.65,-8.60 3.06,-8.33 4.31,-7.62 5.56,-6.92 6.52,-5.85 7.48,-4.78 8.05,-3.46 8.62,-2.14 8.73,-0.70 8.85,0.72 8.50,2.11 8.15,3.51 7.38,4.72 6.61,5.93 5.48,6.83 4.36,7.73 3.02,8.22 1.67,8.72 0.23,8.76 -1.20,8.80 -2.57,8.37 -3.94,7.95 -5.11,7.11 -6.28,6.27 -6.28,6.27 -6.28,6.28 -6.94,5.43 -7.60,4.59 -8.04,3.61 -8.48,2.64 -8.67,1.58 -8.86,0.53 -8.80,-0.53 -8.73,-1.60 -8.41,-2.62 -8.09,-3.64 -7.54,-4.56 -6.99,-5.47 -6.23,-6.23 -5.47,-6.99 -4.56,-7.54 -3.64,-8.10 -2.62,-8.41 -1.60,-8.73 -0.53,-8.80 0.53,-8.86 1.59,-8.67 2.64,-8.48 3.61,-8.04 4.59,-7.60 5.43,-6.94 6.28,-6.28 6.28,-6.28 L 6.28,-6.28 Z"></path></g><g transform="translate(121.12566735222941 103.33124639317401) rotate(0 0.00005000000000165983 0.00005000000000165983)" stroke="none"><path fill="#1e1e1e" d="M 6.28,-6.28 Q 6.28,-6.28 7.11,-5.11 7.95,-3.94 8.37,-2.57 8.80,-1.19 8.76,0.23 8.72,1.67 8.22,3.02 7.73,4.37 6.83,5.49 5.93,6.61 4.72,7.38 3.50,8.15 2.11,8.50 0.72,8.85 -0.71,8.73 -2.14,8.61 -3.46,8.05 -4.78,7.48 -5.85,6.52 -6.92,5.56 -7.63,4.31 -8.33,3.06 -8.60,1.65 -8.87,0.23 -8.68,-1.18 -8.49,-2.60 -7.85,-3.89 -7.21,-5.18 -6.19,-6.19 -5.18,-7.21 -3.89,-7.85 -2.60,-8.49 -1.18,-8.68 0.24,-8.87 1.65,-8.60 3.06,-8.33 4.31,-7.62 5.56,-6.92 6.52,-5.85 7.48,-4.78 8.05,-3.46 8.62,-2.14 8.73,-0.70 8.85,0.72 8.50,2.11 8.15,3.51 7.38,4.72 6.61,5.93 5.48,6.83 4.36,7.73 3.02,8.22 1.67,8.72 0.23,8.76 -1.20,8.80 -2.57,8.37 -3.94,7.95 -5.11,7.11 -6.28,6.27 -6.28,6.27 -6.28,6.28 -6.94,5.43 -7.60,4.59 -8.04,3.61 -8.48,2.64 -8.67,1.58 -8.86,0.53 -8.80,-0.53 -8.73,-1.60 -8.41,-2.62 -8.09,-3.64 -7.54,-4.56 -6.99,-5.47 -6.23,-6.23 -5.47,-6.99 -4.56,-7.54 -3.64,-8.10 -2.62,-8.41 -1.60,-8.73 -0.53,-8.80 0.53,-8.86 1.59,-8.67 2.64,-8.48 3.61,-8.04 4.59,-7.60 5.43,-6.94 6.28,-6.28 6.28,-6.28 L 6.28,-6.28 Z"></path></g><g transform="translate(121.12566735222941 103.33124639317401) rotate(0 0.00005000000000165983 0.00005000000000165983)" stroke="none"><path fill="#1e1e1e" d="M 6.28,-6.28 Q 6.28,-6.28 7.11,-5.11 7.95,-3.94 8.37,-2.57 8.80,-1.19 8.76,0.23 8.72,1.67 8.22,3.02 7.73,4.37 6.83,5.49 5.93,6.61 4.72,7.38 3.50,8.15 2.11,8.50 0.72,8.85 -0.71,8.73 -2.14,8.61 -3.46,8.05 -4.78,7.48 -5.85,6.52 -6.92,5.56 -7.63,4.31 -8.33,3.06 -8.60,1.65 -8.87,0.23 -8.68,-1.18 -8.49,-2.60 -7.85,-3.89 -7.21,-5.18 -6.19,-6.19 -5.18,-7.21 -3.89,-7.85 -2.60,-8.49 -1.18,-8.68 0.24,-8.87 1.65,-8.60 3.06,-8.33 4.31,-7.62 5.56,-6.92 6.52,-5.85 7.48,-4.78 8.05,-3.46 8.62,-2.14 8.73,-0.70 8.85,0.72 8.50,2.11 8.15,3.51 7.38,4.72 6.61,5.93 5.48,6.83 4.36,7.73 3.02,8.22 1.67,8.72 0.23,8.76 -1.20,8.80 -2.57,8.37 -3.94,7.95 -5.11,7.11 -6.28,6.27 -6.28,6.27 -6.28,6.28 -6.94,5.43 -7.60,4.59 -8.04,3.61 -8.48,2.64 -8.67,1.58 -8.86,0.53 -8.80,-0.53 -8.73,-1.60 -8.41,-2.62 -8.09,-3.64 -7.54,-4.56 -6.99,-5.47 -6.23,-6.23 -5.47,-6.99 -4.56,-7.54 -3.64,-8.10 -2.62,-8.41 -1.60,-8.73 -0.53,-8.80 0.53,-8.86 1.59,-8.67 2.64,-8.48 3.61,-8.04 4.59,-7.60 5.43,-6.94 6.28,-6.28 6.28,-6.28 L 6.28,-6.28 Z"></path></g><g transform="translate(121.12566735222941 103.33124639317401) rotate(0 0.00005000000000165983 0.00005000000000165983)" stroke="none"><path fill="#1e1e1e" d="M 6.28,-6.28 Q 6.28,-6.28 7.11,-5.11 7.95,-3.94 8.37,-2.57 8.80,-1.19 8.76,0.23 8.72,1.67 8.22,3.02 7.73,4.37 6.83,5.49 5.93,6.61 4.72,7.38 3.50,8.15 2.11,8.50 0.72,8.85 -0.71,8.73 -2.14,8.61 -3.46,8.05 -4.78,7.48 -5.85,6.52 -6.92,5.56 -7.63,4.31 -8.33,3.06 -8.60,1.65 -8.87,0.23 -8.68,-1.18 -8.49,-2.60 -7.85,-3.89 -7.21,-5.18 -6.19,-6.19 -5.18,-7.21 -3.89,-7.85 -2.60,-8.49 -1.18,-8.68 0.24,-8.87 1.65,-8.60 3.06,-8.33 4.31,-7.62 5.56,-6.92 6.52,-5.85 7.48,-4.78 8.05,-3.46 8.62,-2.14 8.73,-0.70 8.85,0.72 8.50,2.11 8.15,3.51 7.38,4.72 6.61,5.93 5.48,6.83 4.36,7.73 3.02,8.22 1.67,8.72 0.23,8.76 -1.20,8.80 -2.57,8.37 -3.94,7.95 -5.11,7.11 -6.28,6.27 -6.28,6.27 -6.28,6.28 -6.94,5.43 -7.60,4.59 -8.04,3.61 -8.48,2.64 -8.67,1.58 -8.86,0.53 -8.80,-0.53 -8.73,-1.60 -8.41,-2.62 -8.09,-3.64 -7.54,-4.56 -6.99,-5.47 -6.23,-6.23 -5.47,-6.99 -4.56,-7.54 -3.64,-8.10 -2.62,-8.41 -1.60,-8.73 -0.53,-8.80 0.53,-8.86 1.59,-8.67 2.64,-8.48 3.61,-8.04 4.59,-7.60 5.43,-6.94 6.28,-6.28 6.28,-6.28 L 6.28,-6.28 Z"></path></g><g transform="translate(124.67571618035441 105.86701299473651) rotate(0 0.00005000000000165983 0.00005000000000165983)" stroke="none"><path fill="#1e1e1e" d="M 6.28,-6.28 Q 6.28,-6.28 7.11,-5.11 7.95,-3.94 8.37,-2.57 8.80,-1.19 8.76,0.23 8.72,1.67 8.22,3.02 7.73,4.37 6.83,5.49 5.93,6.61 4.72,7.38 3.50,8.15 2.11,8.50 0.72,8.85 -0.71,8.73 -2.14,8.61 -3.46,8.05 -4.78,7.48 -5.85,6.52 -6.92,5.56 -7.63,4.31 -8.33,3.06 -8.60,1.65 -8.87,0.23 -8.68,-1.18 -8.49,-2.60 -7.85,-3.89 -7.21,-5.18 -6.19,-6.19 -5.18,-7.21 -3.89,-7.85 -2.60,-8.49 -1.18,-8.68 0.24,-8.87 1.65,-8.60 3.06,-8.33 4.31,-7.62 5.56,-6.92 6.52,-5.85 7.48,-4.78 8.05,-3.46 8.62,-2.14 8.73,-0.70 8.85,0.72 8.50,2.11 8.15,3.51 7.38,4.72 6.61,5.93 5.48,6.83 4.36,7.73 3.02,8.22 1.67,8.72 0.23,8.76 -1.20,8.80 -2.57,8.37 -3.94,7.95 -5.11,7.11 -6.28,6.27 -6.28,6.27 -6.28,6.28 -6.94,5.43 -7.60,4.59 -8.04,3.61 -8.48,2.64 -8.67,1.58 -8.86,0.53 -8.80,-0.53 -8.73,-1.60 -8.41,-2.62 -8.09,-3.64 -7.54,-4.56 -6.99,-5.47 -6.23,-6.23 -5.47,-6.99 -4.56,-7.54 -3.64,-8.10 -2.62,-8.41 -1.60,-8.73 -0.53,-8.80 0.53,-8.86 1.59,-8.67 2.64,-8.48 3.61,-8.04 4.59,-7.60 5.43,-6.94 6.28,-6.28 6.28,-6.28 L 6.28,-6.28 Z"></path></g><g transform="translate(125.18285729363566 104.34555913731464) rotate(0 0.00005000000000165983 0.00005000000000165983)" stroke="none"><path fill="#1e1e1e" d="M 6.28,-6.28 Q 6.28,-6.28 7.11,-5.11 7.95,-3.94 8.37,-2.57 8.80,-1.19 8.76,0.23 8.72,1.67 8.22,3.02 7.73,4.37 6.83,5.49 5.93,6.61 4.72,7.38 3.50,8.15 2.11,8.50 0.72,8.85 -0.71,8.73 -2.14,8.61 -3.46,8.05 -4.78,7.48 -5.85,6.52 -6.92,5.56 -7.63,4.31 -8.33,3.06 -8.60,1.65 -8.87,0.23 -8.68,-1.18 -8.49,-2.60 -7.85,-3.89 -7.21,-5.18 -6.19,-6.19 -5.18,-7.21 -3.89,-7.85 -2.60,-8.49 -1.18,-8.68 0.24,-8.87 1.65,-8.60 3.06,-8.33 4.31,-7.62 5.56,-6.92 6.52,-5.85 7.48,-4.78 8.05,-3.46 8.62,-2.14 8.73,-0.70 8.85,0.72 8.50,2.11 8.15,3.51 7.38,4.72 6.61,5.93 5.48,6.83 4.36,7.73 3.02,8.22 1.67,8.72 0.23,8.76 -1.20,8.80 -2.57,8.37 -3.94,7.95 -5.11,7.11 -6.28,6.27 -6.28,6.27 -6.28,6.28 -6.94,5.43 -7.60,4.59 -8.04,3.61 -8.48,2.64 -8.67,1.58 -8.86,0.53 -8.80,-0.53 -8.73,-1.60 -8.41,-2.62 -8.09,-3.64 -7.54,-4.56 -6.99,-5.47 -6.23,-6.23 -5.47,-6.99 -4.56,-7.54 -3.64,-8.10 -2.62,-8.41 -1.60,-8.73 -0.53,-8.80 0.53,-8.86 1.59,-8.67 2.64,-8.48 3.61,-8.04 4.59,-7.60 5.43,-6.94 6.28,-6.28 6.28,-6.28 L 6.28,-6.28 Z"></path></g><g transform="translate(124.67571618035441 104.34555913731464) rotate(0 0.00005000000000165983 0.00005000000000165983)" stroke="none"><path fill="#1e1e1e" d="M 6.28,-6.28 Q 6.28,-6.28 7.11,-5.11 7.95,-3.94 8.37,-2.57 8.80,-1.19 8.76,0.23 8.72,1.67 8.22,3.02 7.73,4.37 6.83,5.49 5.93,6.61 4.72,7.38 3.50,8.15 2.11,8.50 0.72,8.85 -0.71,8.73 -2.14,8.61 -3.46,8.05 -4.78,7.48 -5.85,6.52 -6.92,5.56 -7.63,4.31 -8.33,3.06 -8.60,1.65 -8.87,0.23 -8.68,-1.18 -8.49,-2.60 -7.85,-3.89 -7.21,-5.18 -6.19,-6.19 -5.18,-7.21 -3.89,-7.85 -2.60,-8.49 -1.18,-8.68 0.24,-8.87 1.65,-8.60 3.06,-8.33 4.31,-7.62 5.56,-6.92 6.52,-5.85 7.48,-4.78 8.05,-3.46 8.62,-2.14 8.73,-0.70 8.85,0.72 8.50,2.11 8.15,3.51 7.38,4.72 6.61,5.93 5.48,6.83 4.36,7.73 3.02,8.22 1.67,8.72 0.23,8.76 -1.20,8.80 -2.57,8.37 -3.94,7.95 -5.11,7.11 -6.28,6.27 -6.28,6.27 -6.28,6.28 -6.94,5.43 -7.60,4.59 -8.04,3.61 -8.48,2.64 -8.67,1.58 -8.86,0.53 -8.80,-0.53 -8.73,-1.60 -8.41,-2.62 -8.09,-3.64 -7.54,-4.56 -6.99,-5.47 -6.23,-6.23 -5.47,-6.99 -4.56,-7.54 -3.64,-8.10 -2.62,-8.41 -1.60,-8.73 -0.53,-8.80 0.53,-8.86 1.59,-8.67 2.64,-8.48 3.61,-8.04 4.59,-7.60 5.43,-6.94 6.28,-6.28 6.28,-6.28 L 6.28,-6.28 Z"></path></g><g transform="translate(124.16857506707316 106.37415410801776) rotate(0 0.00005000000000165983 0.00005000000000165983)" stroke="none"><path fill="#1e1e1e" d="M 1.57,-1.57 Q 1.57,-1.57 1.77,-1.27 1.98,-0.98 2.09,-0.64 2.20,-0.29 2.19,0.05 2.18,0.41 2.05,0.75 1.93,1.09 1.70,1.37 1.48,1.65 1.18,1.84 0.87,2.04 0.52,2.12 0.18,2.21 -0.17,2.18 -0.53,2.15 -0.86,2.01 -1.19,1.87 -1.46,1.63 -1.73,1.39 -1.90,1.07 -2.08,0.76 -2.15,0.41 -2.21,0.05 -2.17,-0.29 -2.12,-0.65 -1.96,-0.97 -1.80,-1.29 -1.54,-1.54 -1.29,-1.80 -0.97,-1.96 -0.65,-2.12 -0.29,-2.17 0.06,-2.21 0.41,-2.15 0.76,-2.08 1.07,-1.90 1.39,-1.73 1.63,-1.46 1.87,-1.19 2.01,-0.86 2.15,-0.53 2.18,-0.17 2.21,0.18 2.12,0.52 2.03,0.87 1.84,1.18 1.65,1.48 1.37,1.70 1.09,1.93 0.75,2.05 0.41,2.18 0.05,2.19 -0.30,2.20 -0.64,2.09 -0.98,1.98 -1.27,1.77 -1.57,1.56 -1.57,1.57 -1.57,1.57 -1.73,1.35 -1.90,1.14 -2.01,0.90 -2.12,0.66 -2.16,0.39 -2.21,0.13 -2.20,-0.13 -2.18,-0.40 -2.10,-0.65 -2.02,-0.91 -1.88,-1.14 -1.74,-1.36 -1.55,-1.55 -1.36,-1.74 -1.14,-1.88 -0.91,-2.02 -0.65,-2.10 -0.40,-2.18 -0.13,-2.20 0.13,-2.21 0.39,-2.16 0.66,-2.12 0.90,-2.01 1.14,-1.90 1.35,-1.73 1.57,-1.57 1.57,-1.57 L 1.57,-1.57 Z"></path></g><g transform="translate(126.19717003777629 105.35987188145526) rotate(0 0.00005000000000165983 0.00005000000000165983)" stroke="none"><path fill="#1e1e1e" d="M 1.57,-1.57 Q 1.57,-1.57 1.77,-1.27 1.98,-0.98 2.09,-0.64 2.20,-0.29 2.19,0.05 2.18,0.41 2.05,0.75 1.93,1.09 1.70,1.37 1.48,1.65 1.18,1.84 0.87,2.04 0.52,2.12 0.18,2.21 -0.17,2.18 -0.53,2.15 -0.86,2.01 -1.19,1.87 -1.46,1.63 -1.73,1.39 -1.90,1.07 -2.08,0.76 -2.15,0.41 -2.21,0.05 -2.17,-0.29 -2.12,-0.65 -1.96,-0.97 -1.80,-1.29 -1.54,-1.54 -1.29,-1.80 -0.97,-1.96 -0.65,-2.12 -0.29,-2.17 0.06,-2.21 0.41,-2.15 0.76,-2.08 1.07,-1.90 1.39,-1.73 1.63,-1.46 1.87,-1.19 2.01,-0.86 2.15,-0.53 2.18,-0.17 2.21,0.18 2.12,0.52 2.03,0.87 1.84,1.18 1.65,1.48 1.37,1.70 1.09,1.93 0.75,2.05 0.41,2.18 0.05,2.19 -0.30,2.20 -0.64,2.09 -0.98,1.98 -1.27,1.77 -1.57,1.56 -1.57,1.57 -1.57,1.57 -1.73,1.35 -1.90,1.14 -2.01,0.90 -2.12,0.66 -2.16,0.39 -2.21,0.13 -2.20,-0.13 -2.18,-0.40 -2.10,-0.65 -2.02,-0.91 -1.88,-1.14 -1.74,-1.36 -1.55,-1.55 -1.36,-1.74 -1.14,-1.88 -0.91,-2.02 -0.65,-2.10 -0.40,-2.18 -0.13,-2.20 0.13,-2.21 0.39,-2.16 0.66,-2.12 0.90,-2.01 1.14,-1.90 1.35,-1.73 1.57,-1.57 1.57,-1.57 L 1.57,-1.57 Z"></path></g><g transform="translate(127.21148278191691 105.35987188145526) rotate(0 0.00005000000000165983 0.00005000000000165983)" stroke="none"><path fill="#1e1e1e" d="M 1.57,-1.57 Q 1.57,-1.57 1.77,-1.27 1.98,-0.98 2.09,-0.64 2.20,-0.29 2.19,0.05 2.18,0.41 2.05,0.75 1.93,1.09 1.70,1.37 1.48,1.65 1.18,1.84 0.87,2.04 0.52,2.12 0.18,2.21 -0.17,2.18 -0.53,2.15 -0.86,2.01 -1.19,1.87 -1.46,1.63 -1.73,1.39 -1.90,1.07 -2.08,0.76 -2.15,0.41 -2.21,0.05 -2.17,-0.29 -2.12,-0.65 -1.96,-0.97 -1.80,-1.29 -1.54,-1.54 -1.29,-1.80 -0.97,-1.96 -0.65,-2.12 -0.29,-2.17 0.06,-2.21 0.41,-2.15 0.76,-2.08 1.07,-1.90 1.39,-1.73 1.63,-1.46 1.87,-1.19 2.01,-0.86 2.15,-0.53 2.18,-0.17 2.21,0.18 2.12,0.52 2.03,0.87 1.84,1.18 1.65,1.48 1.37,1.70 1.09,1.93 0.75,2.05 0.41,2.18 0.05,2.19 -0.30,2.20 -0.64,2.09 -0.98,1.98 -1.27,1.77 -1.57,1.56 -1.57,1.57 -1.57,1.57 -1.73,1.35 -1.90,1.14 -2.01,0.90 -2.12,0.66 -2.16,0.39 -2.21,0.13 -2.20,-0.13 -2.18,-0.40 -2.10,-0.65 -2.02,-0.91 -1.88,-1.14 -1.74,-1.36 -1.55,-1.55 -1.36,-1.74 -1.14,-1.88 -0.91,-2.02 -0.65,-2.10 -0.40,-2.18 -0.13,-2.20 0.13,-2.21 0.39,-2.16 0.66,-2.12 0.90,-2.01 1.14,-1.90 1.35,-1.73 1.57,-1.57 1.57,-1.57 L 1.57,-1.57 Z"></path></g><g transform="translate(127.21148278191691 105.35987188145526) rotate(0 0.00005000000000165983 0.00005000000000165983)" stroke="none"><path fill="#1e1e1e" d="M 1.57,-1.57 Q 1.57,-1.57 1.77,-1.27 1.98,-0.98 2.09,-0.64 2.20,-0.29 2.19,0.05 2.18,0.41 2.05,0.75 1.93,1.09 1.70,1.37 1.48,1.65 1.18,1.84 0.87,2.04 0.52,2.12 0.18,2.21 -0.17,2.18 -0.53,2.15 -0.86,2.01 -1.19,1.87 -1.46,1.63 -1.73,1.39 -1.90,1.07 -2.08,0.76 -2.15,0.41 -2.21,0.05 -2.17,-0.29 -2.12,-0.65 -1.96,-0.97 -1.80,-1.29 -1.54,-1.54 -1.29,-1.80 -0.97,-1.96 -0.65,-2.12 -0.29,-2.17 0.06,-2.21 0.41,-2.15 0.76,-2.08 1.07,-1.90 1.39,-1.73 1.63,-1.46 1.87,-1.19 2.01,-0.86 2.15,-0.53 2.18,-0.17 2.21,0.18 2.12,0.52 2.03,0.87 1.84,1.18 1.65,1.48 1.37,1.70 1.09,1.93 0.75,2.05 0.41,2.18 0.05,2.19 -0.30,2.20 -0.64,2.09 -0.98,1.98 -1.27,1.77 -1.57,1.56 -1.57,1.57 -1.57,1.57 -1.73,1.35 -1.90,1.14 -2.01,0.90 -2.12,0.66 -2.16,0.39 -2.21,0.13 -2.20,-0.13 -2.18,-0.40 -2.10,-0.65 -2.02,-0.91 -1.88,-1.14 -1.74,-1.36 -1.55,-1.55 -1.36,-1.74 -1.14,-1.88 -0.91,-2.02 -0.65,-2.10 -0.40,-2.18 -0.13,-2.20 0.13,-2.21 0.39,-2.16 0.66,-2.12 0.90,-2.01 1.14,-1.90 1.35,-1.73 1.57,-1.57 1.57,-1.57 L 1.57,-1.57 Z"></path></g><g transform="translate(129.7472188659013 105.35987188145526) rotate(0 0.00005000000000165983 0.00005000000000165983)" stroke="none"><path fill="#1e1e1e" d="M 1.57,-1.57 Q 1.57,-1.57 1.77,-1.27 1.98,-0.98 2.09,-0.64 2.20,-0.29 2.19,0.05 2.18,0.41 2.05,0.75 1.93,1.09 1.70,1.37 1.48,1.65 1.18,1.84 0.87,2.04 0.52,2.12 0.18,2.21 -0.17,2.18 -0.53,2.15 -0.86,2.01 -1.19,1.87 -1.46,1.63 -1.73,1.39 -1.90,1.07 -2.08,0.76 -2.15,0.41 -2.21,0.05 -2.17,-0.29 -2.12,-0.65 -1.96,-0.97 -1.80,-1.29 -1.54,-1.54 -1.29,-1.80 -0.97,-1.96 -0.65,-2.12 -0.29,-2.17 0.06,-2.21 0.41,-2.15 0.76,-2.08 1.07,-1.90 1.39,-1.73 1.63,-1.46 1.87,-1.19 2.01,-0.86 2.15,-0.53 2.18,-0.17 2.21,0.18 2.12,0.52 2.03,0.87 1.84,1.18 1.65,1.48 1.37,1.70 1.09,1.93 0.75,2.05 0.41,2.18 0.05,2.19 -0.30,2.20 -0.64,2.09 -0.98,1.98 -1.27,1.77 -1.57,1.56 -1.57,1.57 -1.57,1.57 -1.73,1.35 -1.90,1.14 -2.01,0.90 -2.12,0.66 -2.16,0.39 -2.21,0.13 -2.20,-0.13 -2.18,-0.40 -2.10,-0.65 -2.02,-0.91 -1.88,-1.14 -1.74,-1.36 -1.55,-1.55 -1.36,-1.74 -1.14,-1.88 -0.91,-2.02 -0.65,-2.10 -0.40,-2.18 -0.13,-2.20 0.13,-2.21 0.39,-2.16 0.66,-2.12 0.90,-2.01 1.14,-1.90 1.35,-1.73 1.57,-1.57 1.57,-1.57 L 1.57,-1.57 Z"></path></g><g transform="translate(130.76156212762004 105.35987188145526) rotate(0 0.00005000000000165983 0.00005000000000165983)" stroke="none"><path fill="#1e1e1e" d="M 1.57,-1.57 Q 1.57,-1.57 1.77,-1.27 1.98,-0.98 2.09,-0.64 2.20,-0.29 2.19,0.05 2.18,0.41 2.05,0.75 1.93,1.09 1.70,1.37 1.48,1.65 1.18,1.84 0.87,2.04 0.52,2.12 0.18,2.21 -0.17,2.18 -0.53,2.15 -0.86,2.01 -1.19,1.87 -1.46,1.63 -1.73,1.39 -1.90,1.07 -2.08,0.76 -2.15,0.41 -2.21,0.05 -2.17,-0.29 -2.12,-0.65 -1.96,-0.97 -1.80,-1.29 -1.54,-1.54 -1.29,-1.80 -0.97,-1.96 -0.65,-2.12 -0.29,-2.17 0.06,-2.21 0.41,-2.15 0.76,-2.08 1.07,-1.90 1.39,-1.73 1.63,-1.46 1.87,-1.19 2.01,-0.86 2.15,-0.53 2.18,-0.17 2.21,0.18 2.12,0.52 2.03,0.87 1.84,1.18 1.65,1.48 1.37,1.70 1.09,1.93 0.75,2.05 0.41,2.18 0.05,2.19 -0.30,2.20 -0.64,2.09 -0.98,1.98 -1.27,1.77 -1.57,1.56 -1.57,1.57 -1.57,1.57 -1.73,1.35 -1.90,1.14 -2.01,0.90 -2.12,0.66 -2.16,0.39 -2.21,0.13 -2.20,-0.13 -2.18,-0.40 -2.10,-0.65 -2.02,-0.91 -1.88,-1.14 -1.74,-1.36 -1.55,-1.55 -1.36,-1.74 -1.14,-1.88 -0.91,-2.02 -0.65,-2.10 -0.40,-2.18 -0.13,-2.20 0.13,-2.21 0.39,-2.16 0.66,-2.12 0.90,-2.01 1.14,-1.90 1.35,-1.73 1.57,-1.57 1.57,-1.57 L 1.57,-1.57 Z"></path></g><g transform="translate(131.26867272332316 104.85270025059589) rotate(0 0.00005000000000165983 0.00005000000000165983)" stroke="none"><path fill="#1e1e1e" d="M 1.57,-1.57 Q 1.57,-1.57 1.77,-1.27 1.98,-0.98 2.09,-0.64 2.20,-0.29 2.19,0.05 2.18,0.41 2.05,0.75 1.93,1.09 1.70,1.37 1.48,1.65 1.18,1.84 0.87,2.04 0.52,2.12 0.18,2.21 -0.17,2.18 -0.53,2.15 -0.86,2.01 -1.19,1.87 -1.46,1.63 -1.73,1.39 -1.90,1.07 -2.08,0.76 -2.15,0.41 -2.21,0.05 -2.17,-0.29 -2.12,-0.65 -1.96,-0.97 -1.80,-1.29 -1.54,-1.54 -1.29,-1.80 -0.97,-1.96 -0.65,-2.12 -0.29,-2.17 0.06,-2.21 0.41,-2.15 0.76,-2.08 1.07,-1.90 1.39,-1.73 1.63,-1.46 1.87,-1.19 2.01,-0.86 2.15,-0.53 2.18,-0.17 2.21,0.18 2.12,0.52 2.03,0.87 1.84,1.18 1.65,1.48 1.37,1.70 1.09,1.93 0.75,2.05 0.41,2.18 0.05,2.19 -0.30,2.20 -0.64,2.09 -0.98,1.98 -1.27,1.77 -1.57,1.56 -1.57,1.57 -1.57,1.57 -1.73,1.35 -1.90,1.14 -2.01,0.90 -2.12,0.66 -2.16,0.39 -2.21,0.13 -2.20,-0.13 -2.18,-0.40 -2.10,-0.65 -2.02,-0.91 -1.88,-1.14 -1.74,-1.36 -1.55,-1.55 -1.36,-1.74 -1.14,-1.88 -0.91,-2.02 -0.65,-2.10 -0.40,-2.18 -0.13,-2.20 0.13,-2.21 0.39,-2.16 0.66,-2.12 0.90,-2.01 1.14,-1.90 1.35,-1.73 1.57,-1.57 1.57,-1.57 L 1.57,-1.57 Z"></path></g><g transform="translate(132.79018761590135 12.04416753575206) rotate(0 0.507110595703125 21.30032348632814)" stroke="none"><path fill="#1e1e1e" d="M 1.17,0 Q 1.17,0 1.15,0.87 1.13,1.74 1.15,2.41 1.16,3.07 1.18,4.26 1.21,5.46 1.20,6.22 1.20,6.98 1.21,7.60 1.23,8.22 1.02,9.29 0.81,10.36 0.77,10.92 0.74,11.47 0.55,12.04 0.36,12.60 0.16,13.27 -0.03,13.94 -0.30,14.52 -0.56,15.10 -1.10,15.87 -1.64,16.65 -1.60,17.42 -1.55,18.20 -1.54,18.93 -1.52,19.66 -1.56,20.28 -1.59,20.91 -1.15,21.34 -0.71,21.76 0.24,22.34 1.20,22.91 1.71,23.30 2.21,23.69 2.91,24.29 3.61,24.89 4.22,25.88 4.83,26.88 4.97,27.84 5.11,28.80 5.18,29.70 5.24,30.60 5.26,31.42 5.28,32.25 5.21,33.63 5.15,35.00 5.14,35.87 5.13,36.74 5.14,37.55 5.14,38.36 5.17,40.31 5.20,42.26 5.17,42.45 5.14,42.63 5.05,42.79 4.97,42.96 4.83,43.08 4.70,43.21 4.53,43.29 4.36,43.37 4.17,43.39 3.99,43.41 3.81,43.37 3.63,43.33 3.47,43.23 3.31,43.14 3.19,43.00 3.07,42.85 3.00,42.68 2.93,42.51 2.92,42.32 2.91,42.14 2.96,41.96 3.01,41.78 3.12,41.63 3.22,41.47 3.37,41.36 3.51,41.25 3.69,41.19 3.87,41.13 4.05,41.13 4.24,41.13 4.41,41.19 4.59,41.25 4.74,41.36 4.88,41.47 4.99,41.63 5.09,41.78 5.14,41.96 5.19,42.14 5.18,42.32 5.17,42.51 5.10,42.68 5.03,42.85 4.91,43.00 4.79,43.14 4.64,43.23 4.48,43.33 4.30,43.37 4.11,43.41 3.93,43.39 3.75,43.37 3.58,43.29 3.41,43.21 3.27,43.08 3.14,42.96 3.05,42.79 2.97,42.63 2.94,42.45 2.91,42.26 2.91,42.26 2.91,42.26 2.93,40.31 2.96,38.36 2.95,37.56 2.95,36.76 2.93,35.89 2.91,35.03 2.82,33.69 2.72,32.36 2.67,31.61 2.62,30.87 2.52,30.12 2.42,29.38 2.01,28.21 1.60,27.03 1.03,26.48 0.46,25.93 0.03,25.60 -0.39,25.26 -1.07,24.87 -1.75,24.47 -2.68,23.66 -3.62,22.85 -4.05,22.14 -4.49,21.42 -4.53,20.86 -4.57,20.30 -4.55,19.54 -4.53,18.78 -4.49,18.02 -4.45,17.26 -4.31,16.54 -4.17,15.83 -3.69,15.14 -3.22,14.45 -2.79,13.85 -2.35,13.25 -1.96,12.22 -1.57,11.18 -1.48,10.61 -1.39,10.03 -1.31,9.12 -1.23,8.21 -1.21,7.60 -1.20,6.98 -1.20,6.22 -1.21,5.46 -1.18,4.26 -1.16,3.07 -1.15,2.41 -1.13,1.74 -1.15,0.87 -1.17,0 -1.15,-0.14 -1.14,-0.28 -1.09,-0.41 -1.04,-0.54 -0.96,-0.66 -0.88,-0.78 -0.77,-0.87 -0.66,-0.96 -0.54,-1.03 -0.41,-1.10 -0.27,-1.13 -0.14,-1.16 0.00,-1.16 0.14,-1.16 0.27,-1.13 0.41,-1.10 0.54,-1.03 0.66,-0.96 0.77,-0.87 0.88,-0.78 0.96,-0.66 1.04,-0.54 1.09,-0.41 1.14,-0.28 1.15,-0.14 1.17,0.00 1.17,0.00 L 1.17,0 Z"></path></g><g transform="translate(134.8187520690263 109.41706182286151) rotate(0 0.00005000000000165983 0.00005000000000165983)" stroke="none"><path fill="#1e1e1e" d="M 0.78,-0.78 Q 0.78,-0.78 0.88,-0.63 0.99,-0.49 1.04,-0.32 1.10,-0.14 1.09,0.02 1.09,0.20 1.02,0.37 0.96,0.54 0.85,0.68 0.74,0.82 0.59,0.92 0.43,1.02 0.26,1.06 0.09,1.10 -0.08,1.09 -0.26,1.07 -0.43,1.00 -0.59,0.93 -0.73,0.81 -0.86,0.69 -0.95,0.53 -1.04,0.38 -1.07,0.20 -1.10,0.02 -1.08,-0.14 -1.06,-0.32 -0.98,-0.48 -0.90,-0.64 -0.77,-0.77 -0.64,-0.90 -0.48,-0.98 -0.32,-1.06 -0.14,-1.08 0.03,-1.10 0.20,-1.07 0.38,-1.04 0.53,-0.95 0.69,-0.86 0.81,-0.73 0.93,-0.59 1.00,-0.43 1.07,-0.26 1.09,-0.08 1.10,0.09 1.06,0.26 1.01,0.43 0.92,0.59 0.82,0.74 0.68,0.85 0.54,0.96 0.37,1.02 0.20,1.09 0.02,1.09 -0.15,1.10 -0.32,1.04 -0.49,0.99 -0.63,0.88 -0.78,0.78 -0.78,0.78 -0.78,0.78 -0.86,0.67 -0.95,0.57 -1.00,0.45 -1.06,0.33 -1.08,0.19 -1.10,0.06 -1.10,-0.06 -1.09,-0.20 -1.05,-0.32 -1.01,-0.45 -0.94,-0.57 -0.87,-0.68 -0.77,-0.77 -0.68,-0.87 -0.57,-0.94 -0.45,-1.01 -0.32,-1.05 -0.20,-1.09 -0.06,-1.10 0.06,-1.10 0.19,-1.08 0.33,-1.06 0.45,-1.00 0.57,-0.95 0.67,-0.86 0.78,-0.78 0.78,-0.78 L 0.78,-0.78 Z"></path></g><g transform="translate(135.83303429558885 107.38846685215839) rotate(0 -2.5357208251953125 -16.735961914062514)" stroke="none"><path fill="#1e1e1e" d="M -1.24,0 Q -1.24,0 -1.23,-0.72 -1.23,-1.45 -1.24,-2.05 -1.26,-2.66 -1.30,-3.52 -1.34,-4.39 -1.18,-5.17 -1.01,-5.96 -0.58,-6.89 -0.15,-7.83 0.16,-8.42 0.48,-9.01 0.55,-9.70 0.62,-10.40 0.62,-11.28 0.62,-12.15 0.59,-12.93 0.57,-13.70 0.56,-14.55 0.55,-15.40 0.53,-16.23 0.51,-17.07 0.50,-17.91 0.49,-18.75 0.48,-19.64 0.48,-20.54 -0.19,-21.05 -0.87,-21.56 -1.65,-21.76 -2.44,-21.97 -3.12,-22.83 -3.79,-23.68 -4.45,-24.63 -5.12,-25.58 -5.63,-25.96 -6.15,-26.35 -6.84,-27.16 -7.54,-27.97 -7.82,-28.70 -8.09,-29.43 -8.34,-31.27 -8.59,-33.12 -8.56,-33.36 -8.53,-33.60 -8.42,-33.82 -8.32,-34.04 -8.15,-34.21 -7.98,-34.39 -7.76,-34.50 -7.55,-34.61 -7.31,-34.65 -7.07,-34.68 -6.83,-34.64 -6.59,-34.60 -6.37,-34.48 -6.16,-34.37 -5.99,-34.19 -5.83,-34.01 -5.73,-33.79 -5.63,-33.57 -5.61,-33.32 -5.58,-33.08 -5.64,-32.85 -5.69,-32.61 -5.82,-32.40 -5.95,-32.19 -6.13,-32.04 -6.32,-31.88 -6.55,-31.80 -6.78,-31.71 -7.02,-31.70 -7.26,-31.69 -7.50,-31.75 -7.73,-31.82 -7.93,-31.96 -8.13,-32.10 -8.27,-32.30 -8.42,-32.49 -8.49,-32.72 -8.57,-32.95 -8.57,-33.20 -8.56,-33.44 -8.48,-33.67 -8.40,-33.90 -8.25,-34.09 -8.11,-34.28 -7.90,-34.42 -7.70,-34.55 -7.46,-34.62 -7.23,-34.68 -6.99,-34.66 -6.74,-34.65 -6.52,-34.55 -6.29,-34.46 -6.11,-34.30 -5.93,-34.14 -5.80,-33.93 -5.68,-33.72 -5.63,-33.48 -5.58,-33.25 -5.58,-33.25 -5.58,-33.25 -5.46,-31.88 -5.34,-30.52 -5.12,-29.74 -4.90,-28.96 -4.20,-28.47 -3.50,-27.97 -2.93,-27.13 -2.36,-26.29 -1.80,-25.75 -1.23,-25.21 -0.76,-24.86 -0.28,-24.51 0.43,-24.18 1.16,-23.86 1.59,-23.47 2.03,-23.08 2.58,-22.52 3.13,-21.96 3.35,-21.29 3.56,-20.63 3.56,-19.69 3.56,-18.75 3.55,-17.91 3.53,-17.07 3.52,-16.23 3.50,-15.39 3.50,-14.83 3.50,-14.27 3.47,-13.64 3.44,-13.01 3.39,-12.16 3.35,-11.31 3.31,-10.73 3.27,-10.16 3.18,-9.42 3.09,-8.67 2.61,-7.77 2.14,-6.88 1.74,-5.63 1.34,-4.38 1.30,-3.52 1.26,-2.66 1.24,-2.05 1.23,-1.45 1.23,-0.72 1.24,0 1.22,0.14 1.20,0.29 1.15,0.43 1.09,0.57 1.01,0.69 0.92,0.82 0.81,0.92 0.70,1.02 0.57,1.09 0.43,1.16 0.29,1.19 0.14,1.23 -0.00,1.23 -0.14,1.23 -0.29,1.19 -0.44,1.16 -0.57,1.09 -0.70,1.02 -0.81,0.92 -0.92,0.82 -1.01,0.69 -1.09,0.57 -1.15,0.43 -1.20,0.29 -1.22,0.14 -1.24,-0.00 -1.24,-0.00 L -1.24,0 Z"></path></g></svg>