<svg version="1.1" xmlns="http://www.w3.org/2000/svg" viewBox="0 0 216.4217962503435 192.8755557775499" width="216.4217962503435" height="192.8755557775499" class="excalidraw-svg">
  <!-- svg-source:excalidraw -->
  
  <defs>
    <style class="style-fonts">
      @font-face {
        font-family: "Virgil";
        src: url("https://excalidraw.com/Virgil.woff2");
      }
      @font-face {
        font-family: "Cascadia";
        src: url("https://excalidraw.com/Cascadia.woff2");
      }
      @font-face {
        font-family: "Assistant";
        src: url("https://excalidraw.com/Assistant-Regular.woff2");
      }
    </style>
    
  </defs>
  <rect x="0" y="0" width="216.4217962503435" height="192.8755557775499" fill="#ffffff"></rect><g stroke-linecap="round"><g transform="translate(39.98159386590129 14.579918878525497) rotate(0 1.26788330078125 82.91910552978523)"><path d="M-0.9 0.14 C-0.65 28.04, 1.88 138.69, 2.5 166.34 M0.82 -0.83 C0.83 26.8, 1.3 136.43, 1.53 164.49" stroke="#1e1e1e" stroke-width="2" fill="none"></path></g></g><mask></mask><g stroke-linecap="round"><g transform="translate(10.566890496760607 182.44672490879907) rotate(0 97.88002014160165 -1.521453857421875)"><path d="M-0.57 0.43 C31.88 -0.14, 163.06 -2.47, 195.85 -2.99 M1.34 -0.39 C33.53 -0.79, 162.57 -1.29, 194.96 -1.43" stroke="#1e1e1e" stroke-width="2" fill="none"></path></g></g><mask></mask><g stroke-linecap="round"><g transform="translate(21.21706749871373 14.072777765244247) rotate(0 82.41192626953134 -1.521453857421875)"><path d="M0.72 0.35 C27.98 -0.32, 136.58 -3.43, 164.05 -4.07 M-0.36 -0.51 C27.24 -1.06, 138.77 -2.76, 166.36 -3.08" stroke="#1e1e1e" stroke-width="2" fill="none"></path></g></g><mask></mask><g stroke-linecap="round"><g transform="translate(27.809993524104357 50.58759404942396) rotate(0 25.357528686523466 -18.510986328125014)"><path d="M1.01 -0.11 C9.4 -6.12, 42.53 -29.99, 50.94 -36.26 M0.08 -1.21 C8.28 -7.55, 41.61 -32.06, 50.11 -37.98" stroke="#1e1e1e" stroke-width="2" fill="none"></path></g></g><mask></mask><g stroke-linecap="round"><g transform="translate(40.995906610041914 141.36753179356464) rotate(0 -9.382278442382841 19.77888488769534)"><path d="M1.06 -0.57 C-1.79 5.78, -14.67 31.7, -18.04 38.39 M0.16 1.75 C-2.71 8.17, -15.23 32.79, -18.61 39.31" stroke="#1e1e1e" stroke-width="2" fill="none"></path></g></g><mask></mask><g stroke-linecap="round"><g transform="translate(42.01021935418254 141.874703424424) rotate(0 12.932327270507812 19.525299072265653)"><path d="M-1.04 -0.47 C3.09 6.07, 21.46 32.84, 25.78 39.61 M0.61 -1.77 C4.5 4.39, 20.35 31.09, 24.79 37.78" stroke="#1e1e1e" stroke-width="2" fill="none"></path></g></g><mask></mask></svg>